<svg viewBox="0 0 300 300" xmlns:xlink="http://www.w3.org/1999/xlink" xmlns="http://www.w3.org/2000/svg" id="图层_1"><defs><style>.cls-1{fill:none;}.cls-2{clip-path:url(#clip-path);}.cls-3{fill:#261013;}.cls-4{fill:#cc6642;}.cls-5{fill:#e09d8c;}.cls-6{fill:#e0cbbf;}.cls-7{fill:#ffe8e3;}.cls-8{fill:#f7ccbc;}.cls-9{fill:#ffd9c1;}.cls-10{fill:#ffdecc;}.cls-11{fill:#f4c7b3;}.cls-12{fill:#21080a;}.cls-13{fill:#efbba0;}.cls-14{fill:#634335;}.cls-15{fill:#350609;}.cls-16{fill:#ffa383;}.cls-17{fill:url(#linear-gradient);}.cls-18{fill:url(#linear-gradient-2);}.cls-19{fill:#b41f20;}.cls-20{fill:#d42e2f;}.cls-21{fill:url(#未命名的渐变_8);}</style><clipPath id="clip-path"><rect height="300" width="300" class="cls-1"></rect></clipPath><linearGradient gradientUnits="userSpaceOnUse" y2="152.34" x2="131.75" y1="152.34" x1="126.9" id="linear-gradient"><stop stop-color="#dbdbdb" offset="0"></stop><stop stop-color="#d8d8d8" offset="0.3"></stop><stop stop-color="#cecece" offset="0.54"></stop><stop stop-color="#bcbcbc" offset="0.76"></stop><stop stop-color="#a4a4a4" offset="0.98"></stop><stop stop-color="#a1a1a1" offset="1"></stop></linearGradient><linearGradient xlink:href="#linear-gradient" y2="152.34" x2="179.15" y1="152.34" x1="174.3" id="linear-gradient-2"></linearGradient><linearGradient gradientUnits="userSpaceOnUse" y2="192.03" x2="162.4" y1="192.03" x1="136.27" id="未命名的渐变_8"><stop stop-color="#f2f2f2" offset="0"></stop><stop stop-color="#efefef" offset="0.62"></stop><stop stop-color="#e8e8e8" offset="1"></stop></linearGradient></defs><g class="cls-2"><path d="M81.87,153.42c.77-.4,143-.58,143-.58S223.6,183.85,203,207c-10.19,11.45-58.26,16.18-77,12C109.71,215.37,53.51,168,81.87,153.42Z" class="cls-3"></path><path d="M111.45,258s-7-10.35-5-18.57a27.31,27.31,0,0,1,6.87-12.78s14.17-1.53,23,3.8-6,31.81-6,31.81Z" class="cls-4"></path><path d="M187.46,258s7-10.35,5-18.57a27.21,27.21,0,0,0-6.87-12.78s-14.16-1.53-23,3.8,6,31.81,6,31.81Z" class="cls-4"></path><path d="M128.82,266.07,89.29,248.72l-11.51,4.74a30.45,30.45,0,0,0-17.5,20.8l-6.75,31.36h31.7Z" class="cls-5"></path><path d="M170.1,266.07l39.52-17.35,11.52,4.74a30.47,30.47,0,0,1,17.5,20.8l6.75,31.36h-31.7Z" class="cls-5"></path><polygon points="149.46 234.6 123.47 235.66 89.29 248.72 97.85 305.62 201.07 305.62 209.62 248.72 175.45 235.66 149.46 234.6" class="cls-6"></polygon><path d="M149.46,233.51l-26,2.15-8.53,3.26h0a49.31,49.31,0,0,0,69,0h0l-8.53-3.26Z" class="cls-7"></path><path d="M149.46,192l-21.38,10.68-1.84,34.05h0c6.86,7.48,14.62,8.9,22.8,8.9s16.78-1.42,23.63-8.9h0l-1.83-34.05Z" class="cls-8"></path><path d="M96.13,140.75s-4.74-9.78-15.64-9.46-4,31.43,6.54,35.44,13.08-15.87,13.08-15.87Z" class="cls-9"></path><path d="M202.79,140.75s4.74-9.78,15.63-9.46,4,31.43-6.54,35.44-13.07-15.87-13.07-15.87Z" class="cls-9"></path><path d="M150,221.07c-16.36,0-33.08-9.5-46.95-28.07-10.08-13.5-13.09-39-14.58-62.47-2.73-43.38,23.31-69.3,58.63-69.3.81,0,1.61,0,2.41,0s1.6,0,2.4,0c35.33,0,58.33,25.83,58.63,69.3C210.67,155.3,209.07,182,197,196,182.69,212.65,166.31,221.07,150,221.07Z" class="cls-10"></path><path d="M149.46,178.45a3.28,3.28,0,0,1-2.11-.83c-1.85-1.55-3.89-3.27-3.84-3.27H155.4c.06,0-2,1.72-3.83,3.27A3.3,3.3,0,0,1,149.46,178.45Z" class="cls-11"></path><path d="M132.84,154.38a6.94,6.94,0,1,1-6.93-6.94A6.93,6.93,0,0,1,132.84,154.38Z" class="cls-12"></path><path d="M166.07,154.38a6.94,6.94,0,1,0,6.94-6.94A6.94,6.94,0,0,0,166.07,154.38Z" class="cls-12"></path><path d="M85,144.92s4.84,3.31,4.31,7.31c-.37,2.81-4.15,1.68-4.31,0a1.78,1.78,0,0,1,1.52-1.95A7,7,0,0,0,85,144.92Z" class="cls-13"></path><path d="M214,144.92s-4.84,3.31-4.32,7.31c.37,2.81,4.16,1.68,4.32,0a1.8,1.8,0,0,0-1.53-1.95A7,7,0,0,1,214,144.92Z" class="cls-13"></path><path d="M183,137s-6-6-21.12,1.6a.91.91,0,0,0-.23,1.45l1.15,1.15a1.26,1.26,0,0,0,1.53.2C167.09,139.81,174,135,183,137Z" class="cls-14"></path><path d="M115.39,137s6-6,21.12,1.6a.9.9,0,0,1,.22,1.45l-1.15,1.15a1.24,1.24,0,0,1-1.52.2C131.3,139.81,124.39,135,115.39,137Z" class="cls-14"></path><path d="M139,122.82C121.11,115,121.72,110.56,120,111c-3.64.91-12.65,11-17,17-4.92,6.84-9,20-7,40,3,30.37,21,54,21,54-5-1-42-25-50-46-9.81-25.75,6.3-73.2,30.23-102.72C109.32,58.37,133.59,46,149,55.1c25.79-1.72,45.71,4.75,59.08,21.81C234.48,110.54,239.27,161.64,232,178c-8.1,18.22-30.18,37.55-42,43,28-22,14.48-80,.85-86.37-2.45-1.14-23.63-3.63-42.72-17.27-2.06-1.47,4.55,7.27,15.45,10.91C164.23,128.49,153.59,129.18,139,122.82Z" class="cls-15"></path><polygon points="149.46 276.08 109.63 251.35 89.29 248.72 85.23 305.62 213.69 305.62 209.62 248.72 189.29 251.35 149.46 276.08" class="cls-4"></polygon><path d="M149.46,272s-29.49-24.66-34.52-33-1.67-12.32-1.67-12.32-27.82,13.53-29.19,24.27c0,0,23.55,31.63,65.38,27.53,41.82,4.1,65.38-27.53,65.38-27.53-1.37-10.74-29.2-24.27-29.2-24.27s3.37,4-1.66,12.32S149.46,272,149.46,272Z" class="cls-16"></path><circle r="2.42" cy="152.34" cx="129.33" class="cls-17"></circle><circle r="2.42" cy="152.34" cx="176.73" class="cls-18"></circle><path d="M134.68,190.23c1.67,5.61,7.59,9.77,14.66,9.77s13-4.16,14.66-9.77Z" class="cls-19"></path><path d="M160.36,195.9c-2-2.75-6.2-4.63-11-4.63s-9,1.88-11,4.63a16.87,16.87,0,0,0,22.05,0Z" class="cls-20"></path><path d="M162.4,190.23H136.27a6.35,6.35,0,0,0,3.63,2.91c2.93.69,9.44.69,9.44.69v0s6.5,0,9.43-.69A6.35,6.35,0,0,0,162.4,190.23Z" class="cls-21"></path></g></svg>