<svg xmlns="http://www.w3.org/2000/svg" viewBox="0 0 1087.05 1072.49"><defs><style>.cls-1{fill:#8b9bc3;}.cls-2{fill:#b4bfd3;}.cls-3{fill:#e7eaf5;}.cls-4{fill:#fff;}.cls-5{fill:#3c455d;}.cls-6{fill:#67789c;}.cls-7{fill:#94c384;}.cls-8{fill:#e7ac65;}.cls-9{fill:#78b066;}.cls-10{fill:#364d4d;}.cls-11{fill:#5b8b77;}.cls-12{fill:#5f73b3;}.cls-13{fill:#e3f1f6;opacity:0.56;}.cls-14{opacity:0.48;}.cls-15{fill:#d78058;}.cls-16{fill:#f5df6b;}.cls-17{fill:#a94151;}.cls-18{fill:#e19b84;}.cls-19{fill:#273045;}.cls-20{fill:#7e9fd2;}.cls-21{fill:#000401;}.cls-22{opacity:0.7;}.cls-23{fill:#323879;}.cls-24{fill:#1f253f;}</style></defs><g id="OBJECTS"><polygon class="cls-1" points="975.93 766.98 721.84 766.98 721.84 763.7 972.65 763.7 972.65 725.3 952.42 725.3 952.42 722.02 975.93 722.02 975.93 766.98"/><polygon class="cls-1" points="975.93 779.32 721.84 779.32 721.84 776.04 972.65 776.04 972.65 708.9 952.42 708.9 952.42 705.62 975.93 705.62 975.93 779.32"/><path class="cls-1" d="M960.06,791.66H721.84v-3.28H960.06a12.61,12.61,0,0,0,12.59-12.59v-70a12.61,12.61,0,0,0-12.59-12.59h-7.64v-3.28h7.64a15.89,15.89,0,0,1,15.87,15.87v70A15.89,15.89,0,0,1,960.06,791.66Z"/><path class="cls-1" d="M975.93,707.26h-3.28V549.61a8.77,8.77,0,0,0-8.76-8.76H952.42v-3.28h11.47a12.05,12.05,0,0,1,12,12Z"/><path class="cls-1" d="M975.93,549.61h-3.28V416.19a9.33,9.33,0,0,0-9.31-9.31H952.42V403.6h10.92a12.61,12.61,0,0,1,12.59,12.59Z"/><path class="cls-2" d="M170.14,707.26H158.67a4.65,4.65,0,0,1-4.64-4.65V143.94a4.64,4.64,0,0,1,4.64-4.64h11.47a4.64,4.64,0,0,0-4.64,4.64V702.61A4.65,4.65,0,0,0,170.14,707.26Z"/><rect class="cls-3" x="165.5" y="139.3" width="277.81" height="567.96" rx="4.65"/><path class="cls-4" d="M432.07,154.23v538.1a4.37,4.37,0,0,1-4.27,4.47H181a4.37,4.37,0,0,1-4.27-4.47V154.23a4.37,4.37,0,0,1,4.27-4.48H427.8A4.37,4.37,0,0,1,432.07,154.23Z"/><path class="cls-2" d="M432.07,154.23V692.32a4.37,4.37,0,0,1-4.27,4.48h-9.49a4.37,4.37,0,0,0,4.27-4.48V154.23a4.37,4.37,0,0,0-4.27-4.48h9.49A4.37,4.37,0,0,1,432.07,154.23Z"/><rect class="cls-3" x="176.73" y="287.33" width="255.34" height="10.45"/><rect class="cls-5" x="880.69" y="342.1" width="56.82" height="114.43"/><rect class="cls-5" x="880.69" y="483.65" width="56.82" height="114.43"/><rect class="cls-5" x="880.69" y="626.58" width="56.82" height="114.43"/><path class="cls-3" d="M836.06,342.1h41.18a8,8,0,0,1,8,8V456.53a0,0,0,0,1,0,0H828.06a0,0,0,0,1,0,0V350.1A8,8,0,0,1,836.06,342.1Z"/><rect class="cls-4" x="837.88" y="348.3" width="36.55" height="98.74" rx="3"/><ellipse class="cls-6" cx="855.97" cy="365.29" rx="14.05" ry="13.84"/><ellipse class="cls-6" cx="855.97" cy="397.37" rx="14.05" ry="13.84"/><ellipse class="cls-6" cx="855.97" cy="429.46" rx="14.05" ry="13.84"/><path class="cls-2" d="M852.67,363.8a7.12,7.12,0,0,0-3.81-1.43,13.39,13.39,0,0,0-1.9,0c-.69,0-1.06-.35-.75-.92a22.65,22.65,0,0,1,1.8-2.9,2.16,2.16,0,0,1,2.93-.36,10.4,10.4,0,0,1,3.6,3.62s.07.07.24.06c-.23-.67-.42-1.37-.71-2a7.36,7.36,0,0,0-2.25-2.77c-.76-.61-.7-1.09.24-1.39a17.78,17.78,0,0,1,2.86-.69,2.21,2.21,0,0,1,2.59,1.87,10.69,10.69,0,0,1-.09,5.18,6.69,6.69,0,0,0,1.53-3.94,12.13,12.13,0,0,0-.06-1.7c0-.67.36-1,1-.72a21.23,21.23,0,0,1,2.94,1.77,2.08,2.08,0,0,1,.32,2.93,11.32,11.32,0,0,1-3.78,3.66c.18,0,.36,0,.54-.08l.54-.14a7.81,7.81,0,0,0,3.89-2.65c.58-.71,1.09-.66,1.36.19a20.28,20.28,0,0,1,.74,3,2.13,2.13,0,0,1-1.77,2.43,10.47,10.47,0,0,1-5.36-.09l-.07.15c.7.34,1.37.73,2.09,1a7.67,7.67,0,0,0,3.53.35c.9-.09,1.22.32.8,1.1a20.09,20.09,0,0,1-1.59,2.58,2.21,2.21,0,0,1-3.09.47,10.11,10.11,0,0,1-3.6-3.69.8.8,0,0,0-.16-.15,7.54,7.54,0,0,0,2.9,5c.78.63.73,1.11-.26,1.41a16.92,16.92,0,0,1-3,.68,2.17,2.17,0,0,1-2.44-1.85,10.07,10.07,0,0,1,.13-5.17l-.15-.07a21.76,21.76,0,0,0-1,2A7.29,7.29,0,0,0,853,374c.12,1-.28,1.29-1.18.84a18.31,18.31,0,0,1-2.48-1.49,2.15,2.15,0,0,1-.49-3.16,10.41,10.41,0,0,1,3.75-3.53l-.08-.17c-.78.28-1.58.51-2.32.85a7.52,7.52,0,0,0-2.64,2.18c-.49.61-1,.55-1.26-.19a18.47,18.47,0,0,1-.76-3.08,2.08,2.08,0,0,1,1.85-2.41,14.9,14.9,0,0,1,2.66-.27A23.22,23.22,0,0,1,852.67,363.8Zm.1,1.5a3.2,3.2,0,0,0,6.39,0,3.2,3.2,0,0,0-3.19-3.18A3.16,3.16,0,0,0,852.77,365.3Z"/><path class="cls-2" d="M852.67,395.89a7,7,0,0,0-3.81-1.43,13.39,13.39,0,0,0-1.9,0c-.69,0-1.06-.35-.75-.93a22.65,22.65,0,0,1,1.8-2.9,2.16,2.16,0,0,1,2.93-.36,10.48,10.48,0,0,1,3.6,3.62c0,.05.07.08.24.07-.23-.68-.42-1.38-.71-2a7.39,7.39,0,0,0-2.25-2.78c-.76-.6-.7-1.09.24-1.39a20.18,20.18,0,0,1,2.86-.69,2.21,2.21,0,0,1,2.59,1.88,10.65,10.65,0,0,1-.09,5.17,6.66,6.66,0,0,0,1.53-3.93,12.22,12.22,0,0,0-.06-1.71c0-.66.36-1,1-.71a20.29,20.29,0,0,1,2.94,1.77,2.08,2.08,0,0,1,.32,2.93,11.29,11.29,0,0,1-3.78,3.65,5,5,0,0,0,.54-.08,3.58,3.58,0,0,0,.54-.14,7.75,7.75,0,0,0,3.89-2.65c.58-.7,1.09-.66,1.36.19a20.28,20.28,0,0,1,.74,3,2.12,2.12,0,0,1-1.77,2.43,10.37,10.37,0,0,1-5.36-.09l-.07.16c.7.33,1.37.72,2.09,1a7.81,7.81,0,0,0,3.53.36c.9-.1,1.22.31.8,1.1A19.31,19.31,0,0,1,864,404a2.2,2.2,0,0,1-3.09.47,10,10,0,0,1-3.6-3.69,1.4,1.4,0,0,0-.16-.14,7.52,7.52,0,0,0,2.9,5c.78.64.73,1.11-.26,1.42a17.84,17.84,0,0,1-3,.67,2.15,2.15,0,0,1-2.44-1.85,10.07,10.07,0,0,1,.13-5.17l-.15-.07c-.34.67-.73,1.31-1,2A7.31,7.31,0,0,0,853,406c.12,1-.28,1.3-1.18.84a18.24,18.24,0,0,1-2.48-1.48,2.16,2.16,0,0,1-.49-3.17,10.41,10.41,0,0,1,3.75-3.53l-.08-.17c-.78.28-1.58.51-2.32.85a7.52,7.52,0,0,0-2.64,2.18c-.49.61-1,.56-1.26-.18a18.34,18.34,0,0,1-.76-3.09,2.09,2.09,0,0,1,1.85-2.41,15.89,15.89,0,0,1,2.66-.27A21.15,21.15,0,0,1,852.67,395.89Zm.1,1.49a3.2,3.2,0,0,0,6.39,0,3.21,3.21,0,0,0-3.19-3.18A3.17,3.17,0,0,0,852.77,397.38Z"/><path class="cls-2" d="M852.67,428a7.12,7.12,0,0,0-3.81-1.43,13.39,13.39,0,0,0-1.9,0c-.69,0-1.06-.35-.75-.93a23.25,23.25,0,0,1,1.8-2.89,2.16,2.16,0,0,1,2.93-.37,10.51,10.51,0,0,1,3.6,3.63s.07.07.24.06c-.23-.68-.42-1.38-.71-2a7.36,7.36,0,0,0-2.25-2.77c-.76-.61-.7-1.09.24-1.39a17.78,17.78,0,0,1,2.86-.69,2.21,2.21,0,0,1,2.59,1.87,10.69,10.69,0,0,1-.09,5.18A6.69,6.69,0,0,0,859,422.3a12.08,12.08,0,0,0-.06-1.7c0-.67.36-1,1-.72a21.23,21.23,0,0,1,2.94,1.77,2.08,2.08,0,0,1,.32,2.93,11.32,11.32,0,0,1-3.78,3.66l.54-.08.54-.14a7.81,7.81,0,0,0,3.89-2.65c.58-.71,1.09-.66,1.36.18a20.72,20.72,0,0,1,.74,3,2.12,2.12,0,0,1-1.77,2.42,10.37,10.37,0,0,1-5.36-.08l-.07.15c.7.34,1.37.73,2.09,1a7.67,7.67,0,0,0,3.53.35c.9-.09,1.22.31.8,1.1a20.09,20.09,0,0,1-1.59,2.58,2.21,2.21,0,0,1-3.09.47,10.11,10.11,0,0,1-3.6-3.69.8.8,0,0,0-.16-.15,7.54,7.54,0,0,0,2.9,5c.78.63.73,1.11-.26,1.41a16.92,16.92,0,0,1-3,.68,2.17,2.17,0,0,1-2.44-1.86,10.08,10.08,0,0,1,.13-5.17l-.15-.06a21.76,21.76,0,0,0-1,2,7.29,7.29,0,0,0-.39,3.47c.12,1-.28,1.29-1.18.84a18.31,18.31,0,0,1-2.48-1.49,2.15,2.15,0,0,1-.49-3.16,10.33,10.33,0,0,1,3.75-3.53l-.08-.17c-.78.28-1.58.5-2.32.85a7.5,7.5,0,0,0-2.64,2.17c-.49.61-1,.56-1.26-.18a18.47,18.47,0,0,1-.76-3.08,2.08,2.08,0,0,1,1.85-2.41,14.92,14.92,0,0,1,2.66-.28A25.79,25.79,0,0,1,852.67,428Zm.1,1.49a3.2,3.2,0,0,0,6.39,0,3.2,3.2,0,0,0-3.19-3.18A3.16,3.16,0,0,0,852.77,429.46Z"/><path class="cls-1" d="M778.39,483.65h41.18a8,8,0,0,1,8,8V598.07a0,0,0,0,1,0,0H770.39a0,0,0,0,1,0,0V491.65A8,8,0,0,1,778.39,483.65Z"/><rect class="cls-2" x="780.21" y="489.84" width="36.55" height="98.74" rx="3"/><ellipse class="cls-5" cx="798.29" cy="506.84" rx="14.05" ry="13.84"/><ellipse class="cls-5" cx="798.29" cy="538.92" rx="14.05" ry="13.84"/><ellipse class="cls-5" cx="798.29" cy="571" rx="14.05" ry="13.84"/><path class="cls-6" d="M795,505.35a7,7,0,0,0-3.82-1.43,13.27,13.27,0,0,0-1.89,0c-.69,0-1.06-.35-.75-.93a22.58,22.58,0,0,1,1.79-2.9,2.16,2.16,0,0,1,2.93-.36,10.31,10.31,0,0,1,3.6,3.62c0,.05.08.08.25.07-.24-.68-.43-1.38-.71-2a7.59,7.59,0,0,0-2.25-2.78c-.76-.6-.7-1.09.24-1.38a18.65,18.65,0,0,1,2.86-.7,2.21,2.21,0,0,1,2.59,1.88,10.77,10.77,0,0,1-.09,5.17,6.58,6.58,0,0,0,1.52-3.93,12.21,12.21,0,0,0,0-1.71c-.05-.66.36-1,1-.71a20.84,20.84,0,0,1,2.94,1.77,2.09,2.09,0,0,1,.32,2.93,11.38,11.38,0,0,1-3.78,3.65,5,5,0,0,0,.54-.08,3.58,3.58,0,0,0,.54-.14,7.75,7.75,0,0,0,3.89-2.65c.58-.7,1.09-.66,1.36.19a20.28,20.28,0,0,1,.74,3,2.14,2.14,0,0,1-1.78,2.43,10.33,10.33,0,0,1-5.35-.09l-.07.16c.69.33,1.37.72,2.09,1a7.8,7.8,0,0,0,3.53.36c.9-.09,1.22.31.8,1.1a18.39,18.39,0,0,1-1.6,2.57,2.19,2.19,0,0,1-3.08.47,10.06,10.06,0,0,1-3.61-3.69s-.07-.07-.15-.14a7.55,7.55,0,0,0,2.89,5c.79.64.74,1.11-.25,1.42a16.9,16.9,0,0,1-3,.67,2.15,2.15,0,0,1-2.44-1.85,10.07,10.07,0,0,1,.13-5.17l-.15-.07a21.78,21.78,0,0,0-1,2,7.19,7.19,0,0,0-.39,3.47c.12,1-.28,1.3-1.19.84a17.55,17.55,0,0,1-2.47-1.48,2.17,2.17,0,0,1-.5-3.17,10.44,10.44,0,0,1,3.76-3.53l-.08-.17c-.78.28-1.58.51-2.33.85a7.49,7.49,0,0,0-2.63,2.18c-.49.61-1,.56-1.27-.18a19.36,19.36,0,0,1-.76-3.09,2.1,2.1,0,0,1,1.86-2.41,15.78,15.78,0,0,1,2.66-.27A25.79,25.79,0,0,1,795,505.35Zm.1,1.49a3.13,3.13,0,0,0,3.2,3.14,3.18,3.18,0,0,0,3.19-3.11,3.22,3.22,0,0,0-3.19-3.18A3.17,3.17,0,0,0,795.1,506.84Z"/><path class="cls-6" d="M795,537.43a7.12,7.12,0,0,0-3.82-1.43,13.27,13.27,0,0,0-1.89,0c-.69,0-1.06-.35-.75-.93a23.18,23.18,0,0,1,1.79-2.89,2.15,2.15,0,0,1,2.93-.36,10.23,10.23,0,0,1,3.6,3.62s.08.07.25.06c-.24-.68-.43-1.37-.71-2a7.55,7.55,0,0,0-2.25-2.77c-.76-.61-.7-1.09.24-1.39a17.53,17.53,0,0,1,2.86-.69,2.21,2.21,0,0,1,2.59,1.87,10.81,10.81,0,0,1-.09,5.18,6.61,6.61,0,0,0,1.52-3.94,12.12,12.12,0,0,0,0-1.7c-.05-.67.36-1,1-.72a21.83,21.83,0,0,1,2.94,1.77,2.09,2.09,0,0,1,.32,2.93,11.41,11.41,0,0,1-3.78,3.66c.18,0,.36,0,.54-.08l.54-.14a7.81,7.81,0,0,0,3.89-2.65c.58-.71,1.09-.66,1.36.19a20.28,20.28,0,0,1,.74,3,2.15,2.15,0,0,1-1.78,2.43,10.44,10.44,0,0,1-5.35-.09l-.07.15c.69.34,1.37.73,2.09,1a7.66,7.66,0,0,0,3.53.35c.9-.09,1.22.31.8,1.1a19.1,19.1,0,0,1-1.6,2.58,2.2,2.2,0,0,1-3.08.47,10.13,10.13,0,0,1-3.61-3.69s-.07-.08-.15-.15a7.57,7.57,0,0,0,2.89,5c.79.63.74,1.11-.25,1.41a16.92,16.92,0,0,1-3,.68,2.16,2.16,0,0,1-2.44-1.86,10,10,0,0,1,.13-5.16l-.15-.07a19.48,19.48,0,0,0-1,2,7.17,7.17,0,0,0-.39,3.47c.12,1-.28,1.29-1.19.84a17.61,17.61,0,0,1-2.47-1.49,2.16,2.16,0,0,1-.5-3.16,10.44,10.44,0,0,1,3.76-3.53l-.08-.17c-.78.28-1.58.5-2.33.85a7.57,7.57,0,0,0-2.63,2.17c-.49.61-1,.56-1.27-.18a19.51,19.51,0,0,1-.76-3.08,2.09,2.09,0,0,1,1.86-2.41,14,14,0,0,1,2.66-.27A23.22,23.22,0,0,1,795,537.43Zm.1,1.5a3.15,3.15,0,0,0,3.2,3.14,3.15,3.15,0,1,0-3.2-3.14Z"/><path class="cls-6" d="M795,569.52a7,7,0,0,0-3.82-1.43,13.27,13.27,0,0,0-1.89,0c-.69,0-1.06-.35-.75-.93a22.58,22.58,0,0,1,1.79-2.9,2.16,2.16,0,0,1,2.93-.36,10.31,10.31,0,0,1,3.6,3.62c0,.05.08.08.25.07-.24-.68-.43-1.38-.71-2a7.64,7.64,0,0,0-2.25-2.77c-.76-.6-.7-1.09.24-1.39a19.86,19.86,0,0,1,2.86-.69,2.21,2.21,0,0,1,2.59,1.87,10.81,10.81,0,0,1-.09,5.18,6.58,6.58,0,0,0,1.52-3.93,12.21,12.21,0,0,0,0-1.71c-.05-.66.36-1,1-.71a20.84,20.84,0,0,1,2.94,1.77,2.09,2.09,0,0,1,.32,2.93,11.38,11.38,0,0,1-3.78,3.65,5,5,0,0,0,.54-.08,3.58,3.58,0,0,0,.54-.14,7.75,7.75,0,0,0,3.89-2.65c.58-.7,1.09-.66,1.36.19a20.28,20.28,0,0,1,.74,3,2.14,2.14,0,0,1-1.78,2.43,10.33,10.33,0,0,1-5.35-.09l-.07.16c.69.33,1.37.72,2.09,1a7.8,7.8,0,0,0,3.53.36c.9-.1,1.22.31.8,1.1a18.39,18.39,0,0,1-1.6,2.57,2.19,2.19,0,0,1-3.08.47,10.06,10.06,0,0,1-3.61-3.69s-.07-.07-.15-.14a7.55,7.55,0,0,0,2.89,5c.79.64.74,1.11-.25,1.41a16.92,16.92,0,0,1-3,.68,2.15,2.15,0,0,1-2.44-1.85,10.07,10.07,0,0,1,.13-5.17l-.15-.07a19.48,19.48,0,0,0-1,2,7.19,7.19,0,0,0-.39,3.47c.12,1-.28,1.3-1.19.84a17.55,17.55,0,0,1-2.47-1.48,2.17,2.17,0,0,1-.5-3.17,10.44,10.44,0,0,1,3.76-3.53l-.08-.17c-.78.28-1.58.51-2.33.85a7.49,7.49,0,0,0-2.63,2.18c-.49.61-1,.56-1.27-.18a19.63,19.63,0,0,1-.76-3.09,2.1,2.1,0,0,1,1.86-2.41,15.78,15.78,0,0,1,2.66-.27A21.15,21.15,0,0,1,795,569.52Zm.1,1.49a3.13,3.13,0,0,0,3.2,3.14,3.18,3.18,0,0,0,3.19-3.11,3.22,3.22,0,0,0-3.19-3.18A3.17,3.17,0,0,0,795.1,571Z"/><path class="cls-1" d="M835.57,626h41.18a8,8,0,0,1,8,8V740.43a0,0,0,0,1,0,0H827.57a0,0,0,0,1,0,0V634A8,8,0,0,1,835.57,626Z"/><rect class="cls-2" x="837.39" y="632.2" width="36.55" height="98.74" rx="3"/><ellipse class="cls-5" cx="855.48" cy="649.19" rx="14.05" ry="13.84"/><ellipse class="cls-5" cx="855.48" cy="681.27" rx="14.05" ry="13.84"/><ellipse class="cls-5" cx="855.48" cy="713.36" rx="14.05" ry="13.84"/><path class="cls-6" d="M852.18,647.7a7.12,7.12,0,0,0-3.81-1.43,13.39,13.39,0,0,0-1.9,0c-.69,0-1.06-.35-.75-.93a22.13,22.13,0,0,1,1.8-2.89,2.16,2.16,0,0,1,2.93-.37,10.51,10.51,0,0,1,3.6,3.63s.07.07.24.06c-.24-.68-.42-1.38-.71-2a7.55,7.55,0,0,0-2.25-2.77c-.76-.61-.7-1.09.24-1.39a17.53,17.53,0,0,1,2.86-.69,2.21,2.21,0,0,1,2.59,1.87,10.69,10.69,0,0,1-.09,5.18,6.61,6.61,0,0,0,1.52-3.94,12.07,12.07,0,0,0-.05-1.7c0-.67.36-1,1-.72a21.23,21.23,0,0,1,2.94,1.77,2.09,2.09,0,0,1,.32,2.93,11.41,11.41,0,0,1-3.78,3.66l.54-.08.54-.14a7.81,7.81,0,0,0,3.89-2.65c.58-.71,1.09-.66,1.36.18a20.72,20.72,0,0,1,.74,3,2.12,2.12,0,0,1-1.77,2.42,10.37,10.37,0,0,1-5.36-.08l-.07.15c.69.34,1.37.73,2.09,1a7.66,7.66,0,0,0,3.53.35c.9-.09,1.22.31.8,1.1a20.09,20.09,0,0,1-1.59,2.58,2.21,2.21,0,0,1-3.09.47,10.21,10.21,0,0,1-3.61-3.69c0-.05-.07-.08-.15-.15a7.54,7.54,0,0,0,2.9,5c.78.63.73,1.11-.26,1.41a16.92,16.92,0,0,1-3,.68,2.16,2.16,0,0,1-2.44-1.86,10.08,10.08,0,0,1,.13-5.17l-.15-.06a21.76,21.76,0,0,0-1,2,7.29,7.29,0,0,0-.39,3.47c.12,1-.28,1.29-1.19.84a18.2,18.2,0,0,1-2.47-1.49,2.16,2.16,0,0,1-.5-3.16,10.44,10.44,0,0,1,3.76-3.53l-.08-.17c-.78.28-1.58.5-2.32.85a7.41,7.41,0,0,0-2.64,2.17c-.49.61-1,.56-1.27-.18a19.48,19.48,0,0,1-.75-3.08,2.07,2.07,0,0,1,1.85-2.41,14.82,14.82,0,0,1,2.66-.28A25.79,25.79,0,0,1,852.18,647.7Zm.1,1.49a3.2,3.2,0,0,0,6.39,0,3.2,3.2,0,0,0-3.19-3.18A3.16,3.16,0,0,0,852.28,649.19Z"/><path class="cls-6" d="M852.18,679.79a7,7,0,0,0-3.81-1.43,15.06,15.06,0,0,0-1.9,0c-.69,0-1.06-.34-.75-.92a21.59,21.59,0,0,1,1.8-2.9,2.16,2.16,0,0,1,2.93-.36,10.48,10.48,0,0,1,3.6,3.62s.07.08.24.07c-.24-.68-.42-1.38-.71-2a7.64,7.64,0,0,0-2.25-2.77c-.76-.6-.7-1.09.24-1.39a19.86,19.86,0,0,1,2.86-.69,2.21,2.21,0,0,1,2.59,1.87,10.68,10.68,0,0,1-.09,5.18,6.58,6.58,0,0,0,1.52-3.93,12.21,12.21,0,0,0-.05-1.71c0-.66.36-1,1-.71a20.29,20.29,0,0,1,2.94,1.77,2.09,2.09,0,0,1,.32,2.93,11.38,11.38,0,0,1-3.78,3.65,5,5,0,0,0,.54-.08,3.58,3.58,0,0,0,.54-.14,7.81,7.81,0,0,0,3.89-2.65c.58-.7,1.09-.66,1.36.19a20.28,20.28,0,0,1,.74,3,2.13,2.13,0,0,1-1.77,2.43,10.37,10.37,0,0,1-5.36-.09l-.07.16c.69.33,1.37.72,2.09,1a7.8,7.8,0,0,0,3.53.36c.9-.1,1.22.31.8,1.1a19.31,19.31,0,0,1-1.59,2.57,2.21,2.21,0,0,1-3.09.47,10.14,10.14,0,0,1-3.61-3.69s-.07-.07-.15-.14a7.52,7.52,0,0,0,2.9,5c.78.64.73,1.11-.26,1.41a16.92,16.92,0,0,1-3,.68,2.15,2.15,0,0,1-2.44-1.85,10.07,10.07,0,0,1,.13-5.17l-.15-.07a21.76,21.76,0,0,0-1,2,7.31,7.31,0,0,0-.39,3.47c.12,1-.28,1.3-1.19.84a18.14,18.14,0,0,1-2.47-1.48,2.17,2.17,0,0,1-.5-3.17,10.53,10.53,0,0,1,3.76-3.53l-.08-.17c-.78.28-1.58.51-2.32.85a7.44,7.44,0,0,0-2.64,2.18c-.49.61-1,.56-1.27-.18a19.59,19.59,0,0,1-.75-3.09,2.08,2.08,0,0,1,1.85-2.41,14.81,14.81,0,0,1,2.66-.27A21.15,21.15,0,0,1,852.18,679.79Zm.1,1.49a3.14,3.14,0,0,0,3.2,3.14,3.18,3.18,0,0,0,3.19-3.11,3.22,3.22,0,0,0-3.19-3.18A3.17,3.17,0,0,0,852.28,681.28Z"/><path class="cls-6" d="M852.18,711.87a7.12,7.12,0,0,0-3.81-1.43,13.39,13.39,0,0,0-1.9,0c-.69,0-1.06-.35-.75-.93a22.13,22.13,0,0,1,1.8-2.89,2.16,2.16,0,0,1,2.93-.37,10.51,10.51,0,0,1,3.6,3.63s.07.07.24.06c-.24-.68-.42-1.38-.71-2a7.47,7.47,0,0,0-2.25-2.77c-.76-.61-.7-1.09.24-1.39a18.65,18.65,0,0,1,2.86-.7A2.22,2.22,0,0,1,857,705a10.69,10.69,0,0,1-.09,5.18,6.64,6.64,0,0,0,1.52-3.94,12.07,12.07,0,0,0-.05-1.7c0-.67.36-1,1-.72a21.23,21.23,0,0,1,2.94,1.77,2.09,2.09,0,0,1,.32,2.93,11.29,11.29,0,0,1-3.78,3.65l.54-.07.54-.14a7.81,7.81,0,0,0,3.89-2.65c.58-.71,1.09-.66,1.36.18a20.92,20.92,0,0,1,.74,3,2.12,2.12,0,0,1-1.77,2.43,10.37,10.37,0,0,1-5.36-.09l-.07.16c.69.34,1.37.73,2.09,1a7.66,7.66,0,0,0,3.53.35c.9-.09,1.22.31.8,1.1a19.31,19.31,0,0,1-1.59,2.57,2.2,2.2,0,0,1-3.09.48,10.21,10.21,0,0,1-3.61-3.69s-.07-.08-.15-.15a7.5,7.5,0,0,0,2.9,5c.78.64.73,1.11-.26,1.42a16.05,16.05,0,0,1-3,.67,2.15,2.15,0,0,1-2.44-1.85,10.07,10.07,0,0,1,.13-5.17l-.15-.06a21.76,21.76,0,0,0-1,2,7.29,7.29,0,0,0-.39,3.47c.12,1-.28,1.29-1.19.83a17.17,17.17,0,0,1-2.47-1.48,2.16,2.16,0,0,1-.5-3.16,10.44,10.44,0,0,1,3.76-3.53l-.08-.17c-.78.28-1.58.5-2.32.85a7.31,7.31,0,0,0-2.64,2.17c-.49.61-1,.56-1.27-.18a19.33,19.33,0,0,1-.75-3.09,2.07,2.07,0,0,1,1.85-2.4,14.82,14.82,0,0,1,2.66-.28A25.79,25.79,0,0,1,852.18,711.87Zm.1,1.49a3.2,3.2,0,0,0,6.39,0,3.22,3.22,0,0,0-3.19-3.19A3.17,3.17,0,0,0,852.28,713.36Z"/><path class="cls-3" d="M721,483.65H762.2a8,8,0,0,1,8,8V598.07a0,0,0,0,1,0,0H713a0,0,0,0,1,0,0V491.65A8,8,0,0,1,721,483.65Z"/><rect class="cls-4" x="722.84" y="489.84" width="36.55" height="98.74" rx="3"/><ellipse class="cls-6" cx="740.92" cy="506.84" rx="14.05" ry="13.84"/><ellipse class="cls-6" cx="740.92" cy="538.92" rx="14.05" ry="13.84"/><ellipse class="cls-6" cx="740.92" cy="571" rx="14.05" ry="13.84"/><path class="cls-2" d="M737.63,505.35a7.07,7.07,0,0,0-3.82-1.43,13.27,13.27,0,0,0-1.89,0c-.69,0-1.06-.35-.75-.93a22.58,22.58,0,0,1,1.79-2.9,2.16,2.16,0,0,1,2.93-.36,10.31,10.31,0,0,1,3.6,3.62c0,.05.07.08.24.07-.23-.68-.42-1.38-.71-2a7.46,7.46,0,0,0-2.24-2.78c-.76-.6-.7-1.09.24-1.38a18.65,18.65,0,0,1,2.86-.7,2.22,2.22,0,0,1,2.59,1.88,10.77,10.77,0,0,1-.09,5.17,6.65,6.65,0,0,0,1.52-3.93,14,14,0,0,0,0-1.71c-.05-.66.36-1,1-.71a20.84,20.84,0,0,1,2.94,1.77,2.08,2.08,0,0,1,.31,2.93,11.2,11.2,0,0,1-3.78,3.65,4.85,4.85,0,0,0,.55-.08,3.58,3.58,0,0,0,.54-.14,7.79,7.79,0,0,0,3.89-2.65c.58-.7,1.08-.66,1.36.19a20.28,20.28,0,0,1,.74,3,2.14,2.14,0,0,1-1.78,2.43,10.33,10.33,0,0,1-5.35-.09l-.07.16c.69.33,1.37.72,2.09,1a7.8,7.8,0,0,0,3.53.36c.9-.09,1.22.31.8,1.1a18.39,18.39,0,0,1-1.6,2.57,2.2,2.2,0,0,1-3.09.47,10.11,10.11,0,0,1-3.6-3.69s-.08-.07-.15-.14a7.55,7.55,0,0,0,2.89,5c.79.64.73,1.11-.25,1.42a16.9,16.9,0,0,1-3,.67,2.15,2.15,0,0,1-2.44-1.85,10,10,0,0,1,.13-5.17l-.15-.07a21.78,21.78,0,0,0-1,2,7.07,7.07,0,0,0-.39,3.47c.12,1-.28,1.3-1.19.84a17.55,17.55,0,0,1-2.47-1.48,2.17,2.17,0,0,1-.5-3.17,10.44,10.44,0,0,1,3.76-3.53l-.08-.17c-.78.28-1.58.51-2.33.85a7.49,7.49,0,0,0-2.63,2.18c-.5.61-1,.56-1.27-.18a18.34,18.34,0,0,1-.76-3.09,2.09,2.09,0,0,1,1.85-2.41,16,16,0,0,1,2.67-.27A25.79,25.79,0,0,1,737.63,505.35Zm.1,1.49a3.13,3.13,0,0,0,3.2,3.14,3.18,3.18,0,0,0,3.19-3.11,3.22,3.22,0,0,0-3.19-3.18A3.17,3.17,0,0,0,737.73,506.84Z"/><path class="cls-2" d="M737.63,537.43a7.15,7.15,0,0,0-3.82-1.43,13.27,13.27,0,0,0-1.89,0c-.69,0-1.06-.35-.75-.93a23.18,23.18,0,0,1,1.79-2.89,2.15,2.15,0,0,1,2.93-.36,10.23,10.23,0,0,1,3.6,3.62s.07.07.24.06c-.23-.68-.42-1.37-.71-2a7.43,7.43,0,0,0-2.24-2.77c-.76-.61-.7-1.09.24-1.39a17.53,17.53,0,0,1,2.86-.69,2.22,2.22,0,0,1,2.59,1.87,10.81,10.81,0,0,1-.09,5.18,6.68,6.68,0,0,0,1.52-3.94,13.85,13.85,0,0,0,0-1.7c-.05-.67.36-1,1-.72a21.83,21.83,0,0,1,2.94,1.77,2.08,2.08,0,0,1,.31,2.93,11.23,11.23,0,0,1-3.78,3.66c.19,0,.37,0,.55-.08l.54-.14a7.85,7.85,0,0,0,3.89-2.65c.58-.71,1.08-.66,1.36.19a20.28,20.28,0,0,1,.74,3,2.15,2.15,0,0,1-1.78,2.43,10.44,10.44,0,0,1-5.35-.09l-.07.15c.69.34,1.37.73,2.09,1a7.66,7.66,0,0,0,3.53.35c.9-.09,1.22.31.8,1.1a19.1,19.1,0,0,1-1.6,2.58,2.21,2.21,0,0,1-3.09.47,10.19,10.19,0,0,1-3.6-3.69s-.08-.08-.15-.15a7.57,7.57,0,0,0,2.89,5c.79.63.73,1.11-.25,1.41a16.92,16.92,0,0,1-3,.68,2.16,2.16,0,0,1-2.44-1.86,9.93,9.93,0,0,1,.13-5.16l-.15-.07a19.48,19.48,0,0,0-1,2,7.05,7.05,0,0,0-.39,3.47c.12,1-.28,1.29-1.19.84a17.61,17.61,0,0,1-2.47-1.49,2.16,2.16,0,0,1-.5-3.16,10.44,10.44,0,0,1,3.76-3.53l-.08-.17c-.78.28-1.58.5-2.33.85a7.57,7.57,0,0,0-2.63,2.17c-.5.61-1,.56-1.27-.18a18.47,18.47,0,0,1-.76-3.08,2.08,2.08,0,0,1,1.85-2.41,14.14,14.14,0,0,1,2.67-.27A23.22,23.22,0,0,1,737.63,537.43Zm.1,1.5a3.15,3.15,0,0,0,3.2,3.14,3.15,3.15,0,1,0-3.2-3.14Z"/><path class="cls-2" d="M737.63,569.52a7,7,0,0,0-3.82-1.43,13.27,13.27,0,0,0-1.89,0c-.69,0-1.06-.35-.75-.93a22.58,22.58,0,0,1,1.79-2.9,2.16,2.16,0,0,1,2.93-.36,10.31,10.31,0,0,1,3.6,3.62c0,.05.07.08.24.07-.23-.68-.42-1.38-.71-2a7.51,7.51,0,0,0-2.24-2.77c-.76-.6-.7-1.09.24-1.39a19.86,19.86,0,0,1,2.86-.69,2.22,2.22,0,0,1,2.59,1.87,10.81,10.81,0,0,1-.09,5.18,6.65,6.65,0,0,0,1.52-3.93,14,14,0,0,0,0-1.71c-.05-.66.36-1,1-.71a20.84,20.84,0,0,1,2.94,1.77,2.08,2.08,0,0,1,.31,2.93,11.2,11.2,0,0,1-3.78,3.65,4.85,4.85,0,0,0,.55-.08,3.58,3.58,0,0,0,.54-.14,7.79,7.79,0,0,0,3.89-2.65c.58-.7,1.08-.66,1.36.19a20.28,20.28,0,0,1,.74,3,2.14,2.14,0,0,1-1.78,2.43,10.33,10.33,0,0,1-5.35-.09l-.07.16c.69.33,1.37.72,2.09,1a7.8,7.8,0,0,0,3.53.36c.9-.1,1.22.31.8,1.1a18.39,18.39,0,0,1-1.6,2.57,2.2,2.2,0,0,1-3.09.47,10.11,10.11,0,0,1-3.6-3.69s-.08-.07-.15-.14a7.55,7.55,0,0,0,2.89,5c.79.64.73,1.11-.25,1.41a16.92,16.92,0,0,1-3,.68,2.15,2.15,0,0,1-2.44-1.85,10,10,0,0,1,.13-5.17l-.15-.07a19.48,19.48,0,0,0-1,2,7.07,7.07,0,0,0-.39,3.47c.12,1-.28,1.3-1.19.84a17.55,17.55,0,0,1-2.47-1.48,2.17,2.17,0,0,1-.5-3.17,10.44,10.44,0,0,1,3.76-3.53l-.08-.17c-.78.28-1.58.51-2.33.85a7.49,7.49,0,0,0-2.63,2.18c-.5.61-1,.56-1.27-.18a18.58,18.58,0,0,1-.76-3.09,2.09,2.09,0,0,1,1.85-2.41,16,16,0,0,1,2.67-.27A21.15,21.15,0,0,1,737.63,569.52Zm.1,1.49a3.13,3.13,0,0,0,3.2,3.14,3.18,3.18,0,0,0,3.19-3.11,3.22,3.22,0,0,0-3.19-3.18A3.17,3.17,0,0,0,737.73,571Z"/><path class="cls-1" d="M721.2,626h41.18a8,8,0,0,1,8,8V740.43a0,0,0,0,1,0,0H713.2a0,0,0,0,1,0,0V634A8,8,0,0,1,721.2,626Z"/><rect class="cls-2" x="723.03" y="632.2" width="36.55" height="98.74" rx="3"/><ellipse class="cls-5" cx="741.11" cy="649.19" rx="14.05" ry="13.84"/><ellipse class="cls-5" cx="741.11" cy="681.27" rx="14.05" ry="13.84"/><ellipse class="cls-5" cx="741.11" cy="713.36" rx="14.05" ry="13.84"/><path class="cls-6" d="M737.82,647.7a7.15,7.15,0,0,0-3.82-1.43,13.27,13.27,0,0,0-1.89,0c-.69,0-1.06-.35-.75-.93a23.18,23.18,0,0,1,1.79-2.89,2.16,2.16,0,0,1,2.93-.37,10.34,10.34,0,0,1,3.6,3.63s.07.07.24.06c-.23-.68-.42-1.38-.71-2A7.43,7.43,0,0,0,737,641c-.76-.61-.7-1.09.24-1.39a17.53,17.53,0,0,1,2.86-.69,2.21,2.21,0,0,1,2.59,1.87,10.81,10.81,0,0,1-.09,5.18,6.68,6.68,0,0,0,1.52-3.94,13.79,13.79,0,0,0-.05-1.7c0-.67.36-1,1-.72a21.83,21.83,0,0,1,2.94,1.77,2.08,2.08,0,0,1,.31,2.93,11.23,11.23,0,0,1-3.78,3.66l.55-.08.54-.14a7.85,7.85,0,0,0,3.89-2.65c.58-.71,1.08-.66,1.36.18a20.72,20.72,0,0,1,.74,3,2.13,2.13,0,0,1-1.78,2.42,10.33,10.33,0,0,1-5.35-.08l-.07.15c.69.34,1.37.73,2.09,1a7.66,7.66,0,0,0,3.53.35c.9-.09,1.22.31.8,1.1a19.1,19.1,0,0,1-1.6,2.58,2.21,2.21,0,0,1-3.09.47,10.19,10.19,0,0,1-3.6-3.69c0-.05-.08-.08-.15-.15a7.57,7.57,0,0,0,2.89,5c.79.63.73,1.11-.25,1.41a16.92,16.92,0,0,1-3,.68,2.16,2.16,0,0,1-2.44-1.86,10,10,0,0,1,.13-5.17l-.15-.06a19.48,19.48,0,0,0-1,2,7.05,7.05,0,0,0-.39,3.47c.12,1-.28,1.29-1.19.84a17.61,17.61,0,0,1-2.47-1.49A2.16,2.16,0,0,1,734,654a10.36,10.36,0,0,1,3.76-3.53l-.08-.17c-.78.28-1.58.5-2.33.85a7.46,7.46,0,0,0-2.63,2.17c-.5.61-1,.56-1.27-.18a18.47,18.47,0,0,1-.76-3.08,2.08,2.08,0,0,1,1.85-2.41,15,15,0,0,1,2.67-.28A25.79,25.79,0,0,1,737.82,647.7Zm.1,1.49a3.15,3.15,0,0,0,3.2,3.15,3.15,3.15,0,1,0-3.2-3.15Z"/><path class="cls-6" d="M737.82,679.79a7,7,0,0,0-3.82-1.43,14.92,14.92,0,0,0-1.89,0c-.69,0-1.06-.34-.75-.92a22.58,22.58,0,0,1,1.79-2.9,2.16,2.16,0,0,1,2.93-.36,10.31,10.31,0,0,1,3.6,3.62s.07.08.24.07c-.23-.68-.42-1.38-.71-2a7.51,7.51,0,0,0-2.24-2.77c-.76-.6-.7-1.09.24-1.39a19.86,19.86,0,0,1,2.86-.69,2.22,2.22,0,0,1,2.59,1.87,10.81,10.81,0,0,1-.09,5.18,6.65,6.65,0,0,0,1.52-3.93,14,14,0,0,0-.05-1.71c0-.66.36-1,1-.71a20.84,20.84,0,0,1,2.94,1.77,2.08,2.08,0,0,1,.31,2.93,11.2,11.2,0,0,1-3.78,3.65A4.85,4.85,0,0,0,745,680a3.58,3.58,0,0,0,.54-.14,7.85,7.85,0,0,0,3.89-2.65c.58-.7,1.08-.66,1.36.19a20.28,20.28,0,0,1,.74,3,2.14,2.14,0,0,1-1.78,2.43,10.33,10.33,0,0,1-5.35-.09l-.07.16c.69.33,1.37.72,2.09,1a7.8,7.8,0,0,0,3.53.36c.9-.1,1.22.31.8,1.1a18.39,18.39,0,0,1-1.6,2.57,2.21,2.21,0,0,1-3.09.47,10.11,10.11,0,0,1-3.6-3.69s-.08-.07-.15-.14a7.55,7.55,0,0,0,2.89,5c.79.64.73,1.11-.25,1.41a16.92,16.92,0,0,1-3,.68,2.15,2.15,0,0,1-2.44-1.85,10,10,0,0,1,.13-5.17l-.15-.07a19.48,19.48,0,0,0-1,2,7.07,7.07,0,0,0-.39,3.47c.12,1-.28,1.3-1.19.84a17.55,17.55,0,0,1-2.47-1.48,2.17,2.17,0,0,1-.5-3.17,10.44,10.44,0,0,1,3.76-3.53l-.08-.17c-.78.28-1.58.51-2.33.85a7.49,7.49,0,0,0-2.63,2.18c-.5.61-1,.56-1.27-.18a18.58,18.58,0,0,1-.76-3.09,2.09,2.09,0,0,1,1.85-2.41,15,15,0,0,1,2.67-.27A21.15,21.15,0,0,1,737.82,679.79Zm.1,1.49a3.13,3.13,0,0,0,3.2,3.14,3.18,3.18,0,0,0,3.19-3.11,3.22,3.22,0,0,0-3.19-3.18A3.17,3.17,0,0,0,737.92,681.28Z"/><path class="cls-6" d="M737.82,711.87a7.15,7.15,0,0,0-3.82-1.43,13.27,13.27,0,0,0-1.89,0c-.69,0-1.06-.35-.75-.93a23.18,23.18,0,0,1,1.79-2.89,2.16,2.16,0,0,1,2.93-.37,10.34,10.34,0,0,1,3.6,3.63s.07.07.24.06c-.23-.68-.42-1.38-.71-2a7.35,7.35,0,0,0-2.24-2.77c-.76-.61-.7-1.09.24-1.39a18.65,18.65,0,0,1,2.86-.7,2.23,2.23,0,0,1,2.59,1.88,10.81,10.81,0,0,1-.09,5.18,6.7,6.7,0,0,0,1.52-3.94,13.79,13.79,0,0,0-.05-1.7c0-.67.36-1,1-.72a21.83,21.83,0,0,1,2.94,1.77,2.08,2.08,0,0,1,.31,2.93,11.1,11.1,0,0,1-3.78,3.65l.55-.07.54-.14a7.85,7.85,0,0,0,3.89-2.65c.58-.71,1.08-.66,1.36.18a20.92,20.92,0,0,1,.74,3,2.14,2.14,0,0,1-1.78,2.43,10.33,10.33,0,0,1-5.35-.09l-.07.16c.69.34,1.37.73,2.09,1a7.66,7.66,0,0,0,3.53.35c.9-.09,1.22.31.8,1.1a18.39,18.39,0,0,1-1.6,2.57,2.2,2.2,0,0,1-3.09.48,10.19,10.19,0,0,1-3.6-3.69s-.08-.08-.15-.15a7.52,7.52,0,0,0,2.89,5c.79.64.73,1.11-.25,1.42a16.05,16.05,0,0,1-3,.67,2.15,2.15,0,0,1-2.44-1.85,10,10,0,0,1,.13-5.17l-.15-.06a19.48,19.48,0,0,0-1,2,7.05,7.05,0,0,0-.39,3.47c.12,1-.28,1.29-1.19.83a16.65,16.65,0,0,1-2.47-1.48,2.16,2.16,0,0,1-.5-3.16,10.36,10.36,0,0,1,3.76-3.53l-.08-.17c-.78.28-1.58.5-2.33.85a7.36,7.36,0,0,0-2.63,2.17c-.5.61-1,.56-1.27-.18a18.34,18.34,0,0,1-.76-3.09,2.07,2.07,0,0,1,1.85-2.4,15,15,0,0,1,2.67-.28A25.79,25.79,0,0,1,737.82,711.87Zm.1,1.49a3.15,3.15,0,0,0,3.2,3.15,3.15,3.15,0,1,0-3.2-3.15Z"/><path class="cls-3" d="M663.64,626h41.18a8,8,0,0,1,8,8V740.43a0,0,0,0,1,0,0H655.64a0,0,0,0,1,0,0V634A8,8,0,0,1,663.64,626Z"/><rect class="cls-4" x="665.47" y="632.2" width="36.55" height="98.74" rx="3"/><ellipse class="cls-6" cx="683.55" cy="649.19" rx="14.05" ry="13.84"/><ellipse class="cls-6" cx="683.55" cy="681.27" rx="14.05" ry="13.84"/><ellipse class="cls-6" cx="683.55" cy="713.36" rx="14.05" ry="13.84"/><path class="cls-2" d="M680.25,647.7a7.08,7.08,0,0,0-3.81-1.43,13.42,13.42,0,0,0-1.9,0c-.68,0-1-.35-.74-.93a23.18,23.18,0,0,1,1.79-2.89,2.16,2.16,0,0,1,2.93-.37,10.34,10.34,0,0,1,3.6,3.63s.07.07.24.06c-.23-.68-.42-1.38-.71-2a7.43,7.43,0,0,0-2.24-2.77c-.76-.61-.7-1.09.24-1.39a17.53,17.53,0,0,1,2.86-.69,2.2,2.2,0,0,1,2.58,1.87A10.69,10.69,0,0,1,685,646a6.68,6.68,0,0,0,1.52-3.94,13.79,13.79,0,0,0,0-1.7c-.05-.67.36-1,1-.72a21.83,21.83,0,0,1,2.94,1.77,2.09,2.09,0,0,1,.31,2.93,11.23,11.23,0,0,1-3.78,3.66l.55-.08.54-.14a7.85,7.85,0,0,0,3.89-2.65c.58-.71,1.08-.66,1.36.18a20.72,20.72,0,0,1,.74,3,2.13,2.13,0,0,1-1.78,2.42,10.33,10.33,0,0,1-5.35-.08l-.08.15c.7.34,1.38.73,2.1,1a7.63,7.63,0,0,0,3.52.35c.91-.09,1.23.31.81,1.1a19.1,19.1,0,0,1-1.6,2.58,2.21,2.21,0,0,1-3.09.47,10.19,10.19,0,0,1-3.6-3.69c0-.05-.08-.08-.15-.15a7.57,7.57,0,0,0,2.89,5c.79.63.73,1.11-.25,1.41a16.92,16.92,0,0,1-3,.68,2.16,2.16,0,0,1-2.44-1.86,10,10,0,0,1,.13-5.17l-.15-.06a19.48,19.48,0,0,0-1,2,7.05,7.05,0,0,0-.39,3.47c.12,1-.28,1.29-1.19.84a17.61,17.61,0,0,1-2.47-1.49,2.16,2.16,0,0,1-.5-3.16,10.36,10.36,0,0,1,3.76-3.53l-.09-.17c-.77.28-1.57.5-2.32.85a7.46,7.46,0,0,0-2.63,2.17c-.5.61-1,.56-1.27-.18a18.47,18.47,0,0,1-.76-3.08,2.08,2.08,0,0,1,1.85-2.41,15,15,0,0,1,2.66-.28A25.18,25.18,0,0,1,680.25,647.7Zm.11,1.49a3.15,3.15,0,0,0,3.19,3.15,3.15,3.15,0,1,0,0-6.29A3.16,3.16,0,0,0,680.36,649.19Z"/><path class="cls-2" d="M680.25,679.79a6.93,6.93,0,0,0-3.81-1.43,15.08,15.08,0,0,0-1.9,0c-.68,0-1-.34-.74-.92a22.58,22.58,0,0,1,1.79-2.9,2.16,2.16,0,0,1,2.93-.36,10.31,10.31,0,0,1,3.6,3.62s.07.08.24.07c-.23-.68-.42-1.38-.71-2a7.51,7.51,0,0,0-2.24-2.77c-.76-.6-.7-1.09.24-1.39a19.86,19.86,0,0,1,2.86-.69,2.21,2.21,0,0,1,2.58,1.87,10.68,10.68,0,0,1-.08,5.18,6.65,6.65,0,0,0,1.52-3.93,14,14,0,0,0,0-1.71c-.05-.66.36-1,1-.71a20.84,20.84,0,0,1,2.94,1.77,2.08,2.08,0,0,1,.31,2.93,11.2,11.2,0,0,1-3.78,3.65,4.85,4.85,0,0,0,.55-.08,3.58,3.58,0,0,0,.54-.14,7.85,7.85,0,0,0,3.89-2.65c.58-.7,1.08-.66,1.36.19a20.28,20.28,0,0,1,.74,3,2.14,2.14,0,0,1-1.78,2.43,10.33,10.33,0,0,1-5.35-.09l-.08.16c.7.33,1.38.72,2.1,1a7.77,7.77,0,0,0,3.52.36c.91-.1,1.23.31.81,1.1a18.39,18.39,0,0,1-1.6,2.57,2.21,2.21,0,0,1-3.09.47,10.11,10.11,0,0,1-3.6-3.69s-.08-.07-.15-.14a7.55,7.55,0,0,0,2.89,5c.79.64.73,1.11-.25,1.41a16.92,16.92,0,0,1-3,.68,2.15,2.15,0,0,1-2.44-1.85,10,10,0,0,1,.13-5.17l-.15-.07a19.48,19.48,0,0,0-1,2,7.07,7.07,0,0,0-.39,3.47c.12,1-.28,1.3-1.19.84a17.55,17.55,0,0,1-2.47-1.48,2.17,2.17,0,0,1-.5-3.17,10.44,10.44,0,0,1,3.76-3.53l-.09-.17c-.77.28-1.57.51-2.32.85a7.49,7.49,0,0,0-2.63,2.18c-.5.61-1,.56-1.27-.18a18.58,18.58,0,0,1-.76-3.09,2.09,2.09,0,0,1,1.85-2.41,15,15,0,0,1,2.66-.27A20.74,20.74,0,0,1,680.25,679.79Zm.11,1.49a3.13,3.13,0,0,0,3.19,3.14,3.15,3.15,0,1,0-3.19-3.14Z"/><path class="cls-2" d="M680.25,711.87a7.08,7.08,0,0,0-3.81-1.43,13.42,13.42,0,0,0-1.9,0c-.68,0-1-.35-.74-.93a23.18,23.18,0,0,1,1.79-2.89,2.16,2.16,0,0,1,2.93-.37,10.34,10.34,0,0,1,3.6,3.63s.07.07.24.06c-.23-.68-.42-1.38-.71-2a7.35,7.35,0,0,0-2.24-2.77c-.76-.61-.7-1.09.24-1.39a18.65,18.65,0,0,1,2.86-.7,2.21,2.21,0,0,1,2.58,1.88,10.69,10.69,0,0,1-.08,5.18,6.7,6.7,0,0,0,1.52-3.94,13.79,13.79,0,0,0,0-1.7c-.05-.67.36-1,1-.72a21.83,21.83,0,0,1,2.94,1.77,2.09,2.09,0,0,1,.31,2.93,11.1,11.1,0,0,1-3.78,3.65l.55-.07.54-.14a7.85,7.85,0,0,0,3.89-2.65c.58-.71,1.08-.66,1.36.18a20.92,20.92,0,0,1,.74,3,2.14,2.14,0,0,1-1.78,2.43,10.33,10.33,0,0,1-5.35-.09l-.08.16c.7.34,1.38.73,2.1,1a7.63,7.63,0,0,0,3.52.35c.91-.09,1.23.31.81,1.1a18.39,18.39,0,0,1-1.6,2.57,2.2,2.2,0,0,1-3.09.48,10.19,10.19,0,0,1-3.6-3.69s-.08-.08-.15-.15a7.52,7.52,0,0,0,2.89,5c.79.64.73,1.11-.25,1.42a16.05,16.05,0,0,1-3,.67,2.15,2.15,0,0,1-2.44-1.85,10,10,0,0,1,.13-5.17l-.15-.06a19.48,19.48,0,0,0-1,2,7.05,7.05,0,0,0-.39,3.47c.12,1-.28,1.29-1.19.83a16.65,16.65,0,0,1-2.47-1.48,2.16,2.16,0,0,1-.5-3.16,10.36,10.36,0,0,1,3.76-3.53l-.09-.17c-.77.28-1.57.5-2.32.85a7.36,7.36,0,0,0-2.63,2.17c-.5.61-1,.56-1.27-.18a18.34,18.34,0,0,1-.76-3.09,2.07,2.07,0,0,1,1.85-2.4,15,15,0,0,1,2.66-.28A25.18,25.18,0,0,1,680.25,711.87Zm.11,1.49a3.15,3.15,0,0,0,3.19,3.15,3.15,3.15,0,1,0-3.19-3.15Z"/><path class="cls-5" d="M655.26,740.43H598.08V634a8,8,0,0,1,8-8h41.18a8,8,0,0,1,8,8Z"/><rect class="cls-7" x="607.91" y="632.2" width="36.55" height="98.74" rx="3"/><ellipse class="cls-5" cx="625.99" cy="649.19" rx="14.05" ry="13.84"/><ellipse class="cls-5" cx="625.99" cy="681.27" rx="14.05" ry="13.84"/><ellipse class="cls-5" cx="625.99" cy="713.36" rx="14.05" ry="13.84"/><path class="cls-6" d="M622.69,647.7a7.08,7.08,0,0,0-3.81-1.43,13.42,13.42,0,0,0-1.9,0c-.68,0-1.05-.35-.74-.93a23.18,23.18,0,0,1,1.79-2.89,2.16,2.16,0,0,1,2.93-.37,10.34,10.34,0,0,1,3.6,3.63s.07.07.24.06c-.23-.68-.42-1.38-.71-2a7.43,7.43,0,0,0-2.24-2.77c-.76-.61-.71-1.09.23-1.39a17.89,17.89,0,0,1,2.87-.69,2.2,2.2,0,0,1,2.58,1.87,10.69,10.69,0,0,1-.08,5.18A6.74,6.74,0,0,0,629,642a13.79,13.79,0,0,0-.05-1.7c0-.67.35-1,1-.72a21.83,21.83,0,0,1,2.94,1.77,2.09,2.09,0,0,1,.31,2.93,11.23,11.23,0,0,1-3.78,3.66l.55-.08.54-.14a7.85,7.85,0,0,0,3.89-2.65c.57-.71,1.08-.66,1.35.18a19.52,19.52,0,0,1,.75,3,2.13,2.13,0,0,1-1.78,2.42,10.33,10.33,0,0,1-5.35-.08l-.08.15c.7.34,1.37.73,2.1,1a7.63,7.63,0,0,0,3.52.35c.91-.09,1.22.31.81,1.1a19.1,19.1,0,0,1-1.6,2.58,2.21,2.21,0,0,1-3.09.47,10.19,10.19,0,0,1-3.6-3.69c0-.05-.08-.08-.15-.15a7.53,7.53,0,0,0,2.89,5c.79.63.73,1.11-.25,1.41a17.13,17.13,0,0,1-3,.68,2.16,2.16,0,0,1-2.44-1.86,10.08,10.08,0,0,1,.12-5.17l-.14-.06a19.48,19.48,0,0,0-1,2,7.05,7.05,0,0,0-.39,3.47c.12,1-.28,1.29-1.19.84a17.61,17.61,0,0,1-2.47-1.49,2.15,2.15,0,0,1-.5-3.16,10.41,10.41,0,0,1,3.75-3.53l-.08-.17c-.77.28-1.57.5-2.32.85a7.46,7.46,0,0,0-2.63,2.17c-.5.61-1,.56-1.27-.18a18.47,18.47,0,0,1-.76-3.08,2.08,2.08,0,0,1,1.85-2.41,15,15,0,0,1,2.66-.28A25.79,25.79,0,0,1,622.69,647.7Zm.11,1.49a3.19,3.19,0,0,0,6.38,0,3.19,3.19,0,0,0-6.38,0Z"/><path class="cls-6" d="M622.69,679.79a6.93,6.93,0,0,0-3.81-1.43,15.08,15.08,0,0,0-1.9,0c-.68,0-1.05-.34-.74-.92a22.58,22.58,0,0,1,1.79-2.9,2.16,2.16,0,0,1,2.93-.36,10.31,10.31,0,0,1,3.6,3.62s.07.08.24.07c-.23-.68-.42-1.38-.71-2a7.51,7.51,0,0,0-2.24-2.77c-.76-.6-.71-1.09.23-1.39A20.32,20.32,0,0,1,625,671a2.21,2.21,0,0,1,2.58,1.87,10.68,10.68,0,0,1-.08,5.18,6.71,6.71,0,0,0,1.52-3.93,14,14,0,0,0-.05-1.71c0-.66.35-1,1-.71a20.84,20.84,0,0,1,2.94,1.77,2.08,2.08,0,0,1,.31,2.93,11.2,11.2,0,0,1-3.78,3.65,5.21,5.21,0,0,0,.55-.08,3.58,3.58,0,0,0,.54-.14,7.85,7.85,0,0,0,3.89-2.65c.57-.7,1.08-.66,1.35.19a19.12,19.12,0,0,1,.75,3,2.14,2.14,0,0,1-1.78,2.43,10.33,10.33,0,0,1-5.35-.09l-.08.16c.7.33,1.37.72,2.1,1a7.77,7.77,0,0,0,3.52.36c.91-.1,1.22.31.81,1.1a18.39,18.39,0,0,1-1.6,2.57,2.21,2.21,0,0,1-3.09.47,10.11,10.11,0,0,1-3.6-3.69s-.08-.07-.15-.14a7.51,7.51,0,0,0,2.89,5c.79.64.73,1.11-.25,1.41a17.13,17.13,0,0,1-3,.68,2.14,2.14,0,0,1-2.44-1.85,10.07,10.07,0,0,1,.12-5.17l-.14-.07a19.48,19.48,0,0,0-1,2,7.07,7.07,0,0,0-.39,3.47c.12,1-.28,1.3-1.19.84a17.55,17.55,0,0,1-2.47-1.48,2.16,2.16,0,0,1-.5-3.17,10.5,10.5,0,0,1,3.75-3.53l-.08-.17c-.77.28-1.57.51-2.32.85a7.49,7.49,0,0,0-2.63,2.18c-.5.61-1,.56-1.27-.18a18.58,18.58,0,0,1-.76-3.09,2.09,2.09,0,0,1,1.85-2.41,15,15,0,0,1,2.66-.27A21.15,21.15,0,0,1,622.69,679.79Zm.11,1.49a3.13,3.13,0,0,0,3.19,3.14,3.15,3.15,0,1,0-3.19-3.14Z"/><path class="cls-6" d="M622.69,711.87a7.08,7.08,0,0,0-3.81-1.43,13.42,13.42,0,0,0-1.9,0c-.68,0-1.05-.35-.74-.93a23.18,23.18,0,0,1,1.79-2.89,2.16,2.16,0,0,1,2.93-.37,10.34,10.34,0,0,1,3.6,3.63s.07.07.24.06c-.23-.68-.42-1.38-.71-2a7.35,7.35,0,0,0-2.24-2.77c-.76-.61-.71-1.09.23-1.39a19.06,19.06,0,0,1,2.87-.7,2.21,2.21,0,0,1,2.58,1.88,10.69,10.69,0,0,1-.08,5.18A6.77,6.77,0,0,0,629,706.2a13.79,13.79,0,0,0-.05-1.7c0-.67.35-1,1-.72a21.83,21.83,0,0,1,2.94,1.77,2.09,2.09,0,0,1,.31,2.93,11.1,11.1,0,0,1-3.78,3.65l.55-.07.54-.14a7.85,7.85,0,0,0,3.89-2.65c.57-.71,1.08-.66,1.35.18a19.7,19.7,0,0,1,.75,3,2.14,2.14,0,0,1-1.78,2.43,10.33,10.33,0,0,1-5.35-.09l-.08.16c.7.34,1.37.73,2.1,1a7.63,7.63,0,0,0,3.52.35c.91-.09,1.22.31.81,1.1a18.39,18.39,0,0,1-1.6,2.57,2.2,2.2,0,0,1-3.09.48,10.19,10.19,0,0,1-3.6-3.69s-.08-.08-.15-.15a7.48,7.48,0,0,0,2.89,5c.79.64.73,1.11-.25,1.42a16.24,16.24,0,0,1-3,.67,2.14,2.14,0,0,1-2.44-1.85,10.07,10.07,0,0,1,.12-5.17l-.14-.06a19.48,19.48,0,0,0-1,2A7.05,7.05,0,0,0,623,722c.12,1-.28,1.29-1.19.83a16.65,16.65,0,0,1-2.47-1.48,2.15,2.15,0,0,1-.5-3.16,10.41,10.41,0,0,1,3.75-3.53l-.08-.17c-.77.28-1.57.5-2.32.85a7.36,7.36,0,0,0-2.63,2.17c-.5.61-1,.56-1.27-.18a18.34,18.34,0,0,1-.76-3.09,2.07,2.07,0,0,1,1.85-2.4,15,15,0,0,1,2.66-.28A25.79,25.79,0,0,1,622.69,711.87Zm.11,1.49a3.19,3.19,0,0,0,6.38,0,3.19,3.19,0,0,0-6.38,0Z"/><path class="cls-5" d="M712.82,598.07H655.64V491.65a8,8,0,0,1,8-8h41.18a8,8,0,0,1,8,8Z"/><rect class="cls-8" x="665.47" y="489.84" width="36.55" height="98.74" rx="3"/><ellipse class="cls-5" cx="683.55" cy="506.84" rx="14.05" ry="13.84"/><ellipse class="cls-5" cx="683.55" cy="538.92" rx="14.05" ry="13.84"/><ellipse class="cls-5" cx="683.55" cy="571" rx="14.05" ry="13.84"/><path class="cls-6" d="M680.25,505.35a7,7,0,0,0-3.81-1.43,13.42,13.42,0,0,0-1.9,0c-.68,0-1-.35-.74-.93a22.58,22.58,0,0,1,1.79-2.9,2.16,2.16,0,0,1,2.93-.36,10.31,10.31,0,0,1,3.6,3.62c0,.05.07.08.24.07-.23-.68-.42-1.38-.71-2a7.46,7.46,0,0,0-2.24-2.78c-.76-.6-.7-1.09.24-1.38a18.65,18.65,0,0,1,2.86-.7,2.21,2.21,0,0,1,2.58,1.88,10.65,10.65,0,0,1-.08,5.17,6.65,6.65,0,0,0,1.52-3.93,14,14,0,0,0,0-1.71c-.05-.66.36-1,1-.71a20.84,20.84,0,0,1,2.94,1.77,2.08,2.08,0,0,1,.31,2.93,11.2,11.2,0,0,1-3.78,3.65,4.85,4.85,0,0,0,.55-.08,3.58,3.58,0,0,0,.54-.14,7.79,7.79,0,0,0,3.89-2.65c.58-.7,1.08-.66,1.36.19a20.28,20.28,0,0,1,.74,3,2.14,2.14,0,0,1-1.78,2.43,10.33,10.33,0,0,1-5.35-.09l-.08.16c.7.33,1.38.72,2.1,1a7.77,7.77,0,0,0,3.52.36c.91-.09,1.23.31.81,1.1a18.39,18.39,0,0,1-1.6,2.57,2.2,2.2,0,0,1-3.09.47,10.11,10.11,0,0,1-3.6-3.69s-.08-.07-.15-.14a7.55,7.55,0,0,0,2.89,5c.79.64.73,1.11-.25,1.42a16.9,16.9,0,0,1-3,.67,2.15,2.15,0,0,1-2.44-1.85,10,10,0,0,1,.13-5.17L682,510a21.78,21.78,0,0,0-1,2,7.07,7.07,0,0,0-.39,3.47c.12,1-.28,1.3-1.19.84a17.55,17.55,0,0,1-2.47-1.48,2.17,2.17,0,0,1-.5-3.17,10.44,10.44,0,0,1,3.76-3.53l-.09-.17c-.77.28-1.57.51-2.32.85a7.49,7.49,0,0,0-2.63,2.18c-.5.61-1,.56-1.27-.18a18.34,18.34,0,0,1-.76-3.09,2.09,2.09,0,0,1,1.85-2.41,16,16,0,0,1,2.66-.27A25.18,25.18,0,0,1,680.25,505.35Zm.11,1.49a3.13,3.13,0,0,0,3.19,3.14,3.15,3.15,0,1,0-3.19-3.14Z"/><path class="cls-6" d="M680.25,537.43a7.08,7.08,0,0,0-3.81-1.43,13.42,13.42,0,0,0-1.9,0c-.68,0-1-.35-.74-.93a23.18,23.18,0,0,1,1.79-2.89,2.15,2.15,0,0,1,2.93-.36,10.23,10.23,0,0,1,3.6,3.62s.07.07.24.06c-.23-.68-.42-1.37-.71-2a7.43,7.43,0,0,0-2.24-2.77c-.76-.61-.7-1.09.24-1.39a17.53,17.53,0,0,1,2.86-.69,2.21,2.21,0,0,1,2.58,1.87,10.69,10.69,0,0,1-.08,5.18,6.68,6.68,0,0,0,1.52-3.94,13.85,13.85,0,0,0,0-1.7c-.05-.67.36-1,1-.72a21.83,21.83,0,0,1,2.94,1.77,2.09,2.09,0,0,1,.31,2.93,11.23,11.23,0,0,1-3.78,3.66c.19,0,.37,0,.55-.08l.54-.14a7.85,7.85,0,0,0,3.89-2.65c.58-.71,1.08-.66,1.36.19a20.28,20.28,0,0,1,.74,3,2.15,2.15,0,0,1-1.78,2.43,10.44,10.44,0,0,1-5.35-.09l-.08.15c.7.34,1.38.73,2.1,1a7.63,7.63,0,0,0,3.52.35c.91-.09,1.23.31.81,1.1a19.1,19.1,0,0,1-1.6,2.58,2.21,2.21,0,0,1-3.09.47,10.19,10.19,0,0,1-3.6-3.69s-.08-.08-.15-.15a7.57,7.57,0,0,0,2.89,5c.79.63.73,1.11-.25,1.41a16.92,16.92,0,0,1-3,.68,2.16,2.16,0,0,1-2.44-1.86,9.93,9.93,0,0,1,.13-5.16l-.15-.07a19.48,19.48,0,0,0-1,2,7.05,7.05,0,0,0-.39,3.47c.12,1-.28,1.29-1.19.84a17.61,17.61,0,0,1-2.47-1.49,2.15,2.15,0,0,1-.5-3.16,10.44,10.44,0,0,1,3.76-3.53l-.09-.17c-.77.28-1.57.5-2.32.85a7.57,7.57,0,0,0-2.63,2.17c-.5.61-1,.56-1.27-.18a18.47,18.47,0,0,1-.76-3.08,2.08,2.08,0,0,1,1.85-2.41,14.12,14.12,0,0,1,2.66-.27A22.74,22.74,0,0,1,680.25,537.43Zm.11,1.5a3.14,3.14,0,0,0,3.19,3.14,3.15,3.15,0,1,0-3.19-3.14Z"/><path class="cls-6" d="M680.25,569.52a6.93,6.93,0,0,0-3.81-1.43,13.42,13.42,0,0,0-1.9,0c-.68,0-1-.35-.74-.93a22.58,22.58,0,0,1,1.79-2.9,2.16,2.16,0,0,1,2.93-.36,10.31,10.31,0,0,1,3.6,3.62c0,.05.07.08.24.07-.23-.68-.42-1.38-.71-2a7.51,7.51,0,0,0-2.24-2.77c-.76-.6-.7-1.09.24-1.39a19.86,19.86,0,0,1,2.86-.69,2.21,2.21,0,0,1,2.58,1.87,10.68,10.68,0,0,1-.08,5.18,6.65,6.65,0,0,0,1.52-3.93,14,14,0,0,0,0-1.71c-.05-.66.36-1,1-.71a20.84,20.84,0,0,1,2.94,1.77,2.08,2.08,0,0,1,.31,2.93,11.2,11.2,0,0,1-3.78,3.65,4.85,4.85,0,0,0,.55-.08,3.58,3.58,0,0,0,.54-.14,7.79,7.79,0,0,0,3.89-2.65c.58-.7,1.08-.66,1.36.19a20.28,20.28,0,0,1,.74,3,2.14,2.14,0,0,1-1.78,2.43,10.33,10.33,0,0,1-5.35-.09l-.08.16c.7.33,1.38.72,2.1,1a7.77,7.77,0,0,0,3.52.36c.91-.1,1.23.31.81,1.1a18.39,18.39,0,0,1-1.6,2.57,2.2,2.2,0,0,1-3.09.47,10.11,10.11,0,0,1-3.6-3.69s-.08-.07-.15-.14a7.55,7.55,0,0,0,2.89,5c.79.64.73,1.11-.25,1.41a16.92,16.92,0,0,1-3,.68,2.15,2.15,0,0,1-2.44-1.85,10,10,0,0,1,.13-5.17l-.15-.07a19.48,19.48,0,0,0-1,2,7.07,7.07,0,0,0-.39,3.47c.12,1-.28,1.3-1.19.84a17.55,17.55,0,0,1-2.47-1.48,2.17,2.17,0,0,1-.5-3.17,10.44,10.44,0,0,1,3.76-3.53l-.09-.17c-.77.28-1.57.51-2.32.85a7.49,7.49,0,0,0-2.63,2.18c-.5.61-1,.56-1.27-.18a18.58,18.58,0,0,1-.76-3.09A2.09,2.09,0,0,1,675,569.5a16,16,0,0,1,2.66-.27A20.74,20.74,0,0,1,680.25,569.52Zm.11,1.49a3.13,3.13,0,0,0,3.19,3.14,3.15,3.15,0,1,0-3.19-3.14Z"/><path class="cls-1" d="M606.27,483.65h41.18a8,8,0,0,1,8,8V598.07a0,0,0,0,1,0,0H598.27a0,0,0,0,1,0,0V491.65A8,8,0,0,1,606.27,483.65Z"/><rect class="cls-2" x="608.1" y="489.84" width="36.55" height="98.74" rx="3"/><ellipse class="cls-5" cx="626.18" cy="506.84" rx="14.05" ry="13.84"/><ellipse class="cls-5" cx="626.18" cy="538.92" rx="14.05" ry="13.84"/><ellipse class="cls-5" cx="626.18" cy="571" rx="14.05" ry="13.84"/><path class="cls-6" d="M622.88,505.35a7,7,0,0,0-3.81-1.43,13.39,13.39,0,0,0-1.9,0c-.68,0-1-.35-.74-.93a22.58,22.58,0,0,1,1.79-2.9,2.16,2.16,0,0,1,2.93-.36,10.31,10.31,0,0,1,3.6,3.62c0,.05.07.08.24.07-.23-.68-.42-1.38-.71-2a7.46,7.46,0,0,0-2.24-2.78c-.76-.6-.71-1.09.23-1.38a19.06,19.06,0,0,1,2.87-.7,2.21,2.21,0,0,1,2.58,1.88,10.65,10.65,0,0,1-.08,5.17,6.71,6.71,0,0,0,1.52-3.93,14,14,0,0,0,0-1.71c-.05-.66.35-1,1-.71A20.84,20.84,0,0,1,633,499a2.08,2.08,0,0,1,.31,2.93,11.2,11.2,0,0,1-3.78,3.65,5.21,5.21,0,0,0,.55-.08,3.58,3.58,0,0,0,.54-.14,7.79,7.79,0,0,0,3.89-2.65c.57-.7,1.08-.66,1.35.19a19.12,19.12,0,0,1,.75,3,2.14,2.14,0,0,1-1.78,2.43,10.33,10.33,0,0,1-5.35-.09l-.08.16c.7.33,1.37.72,2.1,1a7.77,7.77,0,0,0,3.52.36c.91-.09,1.22.31.81,1.1a18.39,18.39,0,0,1-1.6,2.57,2.2,2.2,0,0,1-3.09.47,10.11,10.11,0,0,1-3.6-3.69s-.08-.07-.15-.14a7.51,7.51,0,0,0,2.89,5c.79.64.73,1.11-.25,1.42a17.1,17.1,0,0,1-3,.67,2.14,2.14,0,0,1-2.44-1.85,10.07,10.07,0,0,1,.12-5.17l-.14-.07a21.78,21.78,0,0,0-1,2,7.07,7.07,0,0,0-.39,3.47c.12,1-.28,1.3-1.19.84a17.55,17.55,0,0,1-2.47-1.48,2.16,2.16,0,0,1-.5-3.17,10.5,10.5,0,0,1,3.75-3.53l-.08-.17c-.77.28-1.57.51-2.32.85a7.49,7.49,0,0,0-2.63,2.18c-.5.61-1,.56-1.27-.18a18.34,18.34,0,0,1-.76-3.09,2.09,2.09,0,0,1,1.85-2.41,16,16,0,0,1,2.66-.27A25.79,25.79,0,0,1,622.88,505.35Zm.11,1.49a3.13,3.13,0,0,0,3.19,3.14,3.15,3.15,0,1,0-3.19-3.14Z"/><path class="cls-6" d="M622.88,537.43a7.08,7.08,0,0,0-3.81-1.43,13.39,13.39,0,0,0-1.9,0c-.68,0-1-.35-.74-.93a23.18,23.18,0,0,1,1.79-2.89,2.15,2.15,0,0,1,2.93-.36,10.23,10.23,0,0,1,3.6,3.62s.07.07.24.06c-.23-.68-.42-1.37-.71-2a7.43,7.43,0,0,0-2.24-2.77c-.76-.61-.71-1.09.23-1.39a17.89,17.89,0,0,1,2.87-.69,2.21,2.21,0,0,1,2.58,1.87,10.69,10.69,0,0,1-.08,5.18,6.74,6.74,0,0,0,1.52-3.94,13.85,13.85,0,0,0,0-1.7c-.05-.67.35-1,1-.72a21.83,21.83,0,0,1,2.94,1.77,2.09,2.09,0,0,1,.31,2.93,11.23,11.23,0,0,1-3.78,3.66c.18,0,.37,0,.55-.08l.54-.14a7.85,7.85,0,0,0,3.89-2.65c.57-.71,1.08-.66,1.35.19a19.12,19.12,0,0,1,.75,3,2.15,2.15,0,0,1-1.78,2.43,10.43,10.43,0,0,1-5.35-.09l-.08.15c.7.34,1.37.73,2.1,1a7.63,7.63,0,0,0,3.52.35c.91-.09,1.22.31.81,1.1a19.1,19.1,0,0,1-1.6,2.58,2.21,2.21,0,0,1-3.09.47,10.19,10.19,0,0,1-3.6-3.69s-.08-.08-.15-.15a7.53,7.53,0,0,0,2.89,5c.79.63.73,1.11-.25,1.41a17.13,17.13,0,0,1-3,.68,2.16,2.16,0,0,1-2.44-1.86,10,10,0,0,1,.12-5.16l-.14-.07a19.48,19.48,0,0,0-1,2,7.05,7.05,0,0,0-.39,3.47c.12,1-.28,1.29-1.19.84a17.61,17.61,0,0,1-2.47-1.49,2.15,2.15,0,0,1-.5-3.16,10.5,10.5,0,0,1,3.75-3.53l-.08-.17c-.77.28-1.57.5-2.32.85a7.57,7.57,0,0,0-2.63,2.17c-.5.61-1,.56-1.27-.18a18.47,18.47,0,0,1-.76-3.08,2.08,2.08,0,0,1,1.85-2.41,14.12,14.12,0,0,1,2.66-.27A23.22,23.22,0,0,1,622.88,537.43Zm.11,1.5a3.14,3.14,0,0,0,3.19,3.14,3.15,3.15,0,1,0-3.19-3.14Z"/><path class="cls-6" d="M622.88,569.52a6.93,6.93,0,0,0-3.81-1.43,13.39,13.39,0,0,0-1.9,0c-.68,0-1-.35-.74-.93a22.58,22.58,0,0,1,1.79-2.9,2.16,2.16,0,0,1,2.93-.36,10.31,10.31,0,0,1,3.6,3.62c0,.05.07.08.24.07-.23-.68-.42-1.38-.71-2a7.51,7.51,0,0,0-2.24-2.77c-.76-.6-.71-1.09.23-1.39a20.32,20.32,0,0,1,2.87-.69,2.21,2.21,0,0,1,2.58,1.87,10.68,10.68,0,0,1-.08,5.18,6.71,6.71,0,0,0,1.52-3.93,14,14,0,0,0,0-1.71c-.05-.66.35-1,1-.71A20.84,20.84,0,0,1,633,563.2a2.08,2.08,0,0,1,.31,2.93,11.2,11.2,0,0,1-3.78,3.65,5.21,5.21,0,0,0,.55-.08,3.58,3.58,0,0,0,.54-.14,7.79,7.79,0,0,0,3.89-2.65c.57-.7,1.08-.66,1.35.19a19.12,19.12,0,0,1,.75,3,2.14,2.14,0,0,1-1.78,2.43,10.33,10.33,0,0,1-5.35-.09l-.08.16c.7.33,1.37.72,2.1,1a7.77,7.77,0,0,0,3.52.36c.91-.1,1.22.31.81,1.1a18.39,18.39,0,0,1-1.6,2.57,2.2,2.2,0,0,1-3.09.47,10.11,10.11,0,0,1-3.6-3.69s-.08-.07-.15-.14a7.51,7.51,0,0,0,2.89,5c.79.64.73,1.11-.25,1.41a17.13,17.13,0,0,1-3,.68,2.14,2.14,0,0,1-2.44-1.85,10.07,10.07,0,0,1,.12-5.17l-.14-.07a19.48,19.48,0,0,0-1,2,7.07,7.07,0,0,0-.39,3.47c.12,1-.28,1.3-1.19.84a17.55,17.55,0,0,1-2.47-1.48,2.16,2.16,0,0,1-.5-3.17,10.5,10.5,0,0,1,3.75-3.53l-.08-.17c-.77.28-1.57.51-2.32.85a7.49,7.49,0,0,0-2.63,2.18c-.5.61-1,.56-1.27-.18a18.58,18.58,0,0,1-.76-3.09,2.09,2.09,0,0,1,1.85-2.41,16,16,0,0,1,2.66-.27A21.15,21.15,0,0,1,622.88,569.52ZM623,571a3.13,3.13,0,0,0,3.19,3.14A3.15,3.15,0,1,0,623,571Z"/><path class="cls-2" d="M778.88,342.1h41.18a8,8,0,0,1,8,8V456.53a0,0,0,0,1,0,0H770.88a0,0,0,0,1,0,0V350.1A8,8,0,0,1,778.88,342.1Z"/><rect class="cls-3" x="780.7" y="348.3" width="36.55" height="98.74" rx="3"/><ellipse class="cls-5" cx="798.79" cy="365.29" rx="14.05" ry="13.84"/><ellipse class="cls-5" cx="798.79" cy="397.37" rx="14.05" ry="13.84"/><ellipse class="cls-5" cx="798.79" cy="429.46" rx="14.05" ry="13.84"/><path class="cls-6" d="M795.49,363.8a7.12,7.12,0,0,0-3.81-1.43,13.39,13.39,0,0,0-1.9,0c-.69,0-1.06-.35-.75-.92a21.59,21.59,0,0,1,1.8-2.9,2.16,2.16,0,0,1,2.93-.36,10.4,10.4,0,0,1,3.6,3.62s.07.07.24.06c-.24-.67-.42-1.37-.71-2a7.46,7.46,0,0,0-2.25-2.77c-.76-.61-.7-1.09.24-1.39a17.53,17.53,0,0,1,2.86-.69,2.21,2.21,0,0,1,2.59,1.87,10.69,10.69,0,0,1-.09,5.18,6.61,6.61,0,0,0,1.52-3.94,10.77,10.77,0,0,0,0-1.7c-.05-.67.36-1,1-.72a21.23,21.23,0,0,1,2.94,1.77,2.08,2.08,0,0,1,.32,2.93,11.41,11.41,0,0,1-3.78,3.66c.18,0,.36,0,.54-.08l.54-.14a7.81,7.81,0,0,0,3.89-2.65c.58-.71,1.09-.66,1.36.19a20.28,20.28,0,0,1,.74,3,2.13,2.13,0,0,1-1.77,2.43,10.47,10.47,0,0,1-5.36-.09l-.07.15c.7.34,1.37.73,2.09,1a7.67,7.67,0,0,0,3.53.35c.9-.09,1.22.32.8,1.1a20.09,20.09,0,0,1-1.59,2.58,2.21,2.21,0,0,1-3.09.47,10.21,10.21,0,0,1-3.61-3.69c0-.05-.07-.08-.15-.15a7.54,7.54,0,0,0,2.9,5c.78.63.73,1.11-.26,1.41a16.92,16.92,0,0,1-3,.68,2.16,2.16,0,0,1-2.44-1.85,10.07,10.07,0,0,1,.13-5.17l-.15-.07a21.76,21.76,0,0,0-1,2,7.29,7.29,0,0,0-.39,3.47c.12,1-.28,1.29-1.19.84a18.2,18.2,0,0,1-2.47-1.49,2.16,2.16,0,0,1-.5-3.16,10.53,10.53,0,0,1,3.76-3.53l-.08-.17c-.78.28-1.58.51-2.32.85a7.52,7.52,0,0,0-2.64,2.18c-.49.61-1,.55-1.27-.19a19.48,19.48,0,0,1-.75-3.08,2.08,2.08,0,0,1,1.85-2.41,14.81,14.81,0,0,1,2.66-.27A23.22,23.22,0,0,1,795.49,363.8Zm.1,1.5a3.2,3.2,0,0,0,6.39,0,3.2,3.2,0,0,0-3.19-3.18A3.16,3.16,0,0,0,795.59,365.3Z"/><path class="cls-6" d="M795.49,395.89a7,7,0,0,0-3.81-1.43,13.39,13.39,0,0,0-1.9,0c-.69,0-1.06-.35-.75-.93a21.59,21.59,0,0,1,1.8-2.9,2.16,2.16,0,0,1,2.93-.36,10.48,10.48,0,0,1,3.6,3.62c0,.05.07.08.24.07-.24-.68-.42-1.38-.71-2a7.49,7.49,0,0,0-2.25-2.78c-.76-.6-.7-1.09.24-1.39a19.86,19.86,0,0,1,2.86-.69,2.21,2.21,0,0,1,2.59,1.88,10.65,10.65,0,0,1-.09,5.17,6.58,6.58,0,0,0,1.52-3.93,10.86,10.86,0,0,0,0-1.71c-.05-.66.36-1,1-.71a20.29,20.29,0,0,1,2.94,1.77,2.08,2.08,0,0,1,.32,2.93,11.38,11.38,0,0,1-3.78,3.65,5,5,0,0,0,.54-.08,3.58,3.58,0,0,0,.54-.14,7.75,7.75,0,0,0,3.89-2.65c.58-.7,1.09-.66,1.36.19a20.28,20.28,0,0,1,.74,3,2.12,2.12,0,0,1-1.77,2.43,10.37,10.37,0,0,1-5.36-.09L802,399c.7.33,1.37.72,2.09,1a7.81,7.81,0,0,0,3.53.36c.9-.1,1.22.31.8,1.1a19.31,19.31,0,0,1-1.59,2.57,2.2,2.2,0,0,1-3.09.47,10.14,10.14,0,0,1-3.61-3.69s-.07-.07-.15-.14a7.52,7.52,0,0,0,2.9,5c.78.64.73,1.11-.26,1.42a17.84,17.84,0,0,1-3,.67,2.15,2.15,0,0,1-2.44-1.85,10.07,10.07,0,0,1,.13-5.17l-.15-.07c-.34.67-.73,1.31-1,2a7.31,7.31,0,0,0-.39,3.47c.12,1-.28,1.3-1.19.84a18.14,18.14,0,0,1-2.47-1.48,2.17,2.17,0,0,1-.5-3.17,10.53,10.53,0,0,1,3.76-3.53l-.08-.17c-.78.28-1.58.51-2.32.85a7.52,7.52,0,0,0-2.64,2.18c-.49.61-1,.56-1.27-.18a19.33,19.33,0,0,1-.75-3.09,2.09,2.09,0,0,1,1.85-2.41,15.78,15.78,0,0,1,2.66-.27A21.15,21.15,0,0,1,795.49,395.89Zm.1,1.49a3.2,3.2,0,0,0,6.39,0,3.22,3.22,0,0,0-3.19-3.18A3.17,3.17,0,0,0,795.59,397.38Z"/><path class="cls-6" d="M795.49,428a7.12,7.12,0,0,0-3.81-1.43,13.39,13.39,0,0,0-1.9,0c-.69,0-1.06-.35-.75-.93a22.13,22.13,0,0,1,1.8-2.89,2.16,2.16,0,0,1,2.93-.37,10.51,10.51,0,0,1,3.6,3.63s.07.07.24.06c-.24-.68-.42-1.38-.71-2a7.46,7.46,0,0,0-2.25-2.77c-.76-.61-.7-1.09.24-1.39a17.53,17.53,0,0,1,2.86-.69,2.21,2.21,0,0,1,2.59,1.87,10.69,10.69,0,0,1-.09,5.18,6.61,6.61,0,0,0,1.52-3.94,10.73,10.73,0,0,0,0-1.7c-.05-.67.36-1,1-.72a21.23,21.23,0,0,1,2.94,1.77,2.08,2.08,0,0,1,.32,2.93,11.41,11.41,0,0,1-3.78,3.66l.54-.08.54-.14a7.81,7.81,0,0,0,3.89-2.65c.58-.71,1.09-.66,1.36.18a20.72,20.72,0,0,1,.74,3,2.12,2.12,0,0,1-1.77,2.42,10.37,10.37,0,0,1-5.36-.08L802,431c.7.34,1.37.73,2.09,1a7.67,7.67,0,0,0,3.53.35c.9-.09,1.22.31.8,1.1a20.09,20.09,0,0,1-1.59,2.58,2.21,2.21,0,0,1-3.09.47,10.21,10.21,0,0,1-3.61-3.69s-.07-.08-.15-.15a7.54,7.54,0,0,0,2.9,5c.78.63.73,1.11-.26,1.41a16.92,16.92,0,0,1-3,.68,2.16,2.16,0,0,1-2.44-1.86,10.08,10.08,0,0,1,.13-5.17l-.15-.06a21.76,21.76,0,0,0-1,2,7.29,7.29,0,0,0-.39,3.47c.12,1-.28,1.29-1.19.84a18.2,18.2,0,0,1-2.47-1.49,2.16,2.16,0,0,1-.5-3.16,10.44,10.44,0,0,1,3.76-3.53l-.08-.17c-.78.28-1.58.5-2.32.85a7.5,7.5,0,0,0-2.64,2.17c-.49.61-1,.56-1.27-.18a19.48,19.48,0,0,1-.75-3.08A2.08,2.08,0,0,1,790.2,428a14.82,14.82,0,0,1,2.66-.28A25.79,25.79,0,0,1,795.49,428Zm.1,1.49a3.2,3.2,0,0,0,6.39,0,3.2,3.2,0,0,0-3.19-3.18A3.16,3.16,0,0,0,795.59,429.46Z"/><path class="cls-5" d="M770.88,456.53H713.7V350.1a8,8,0,0,1,8-8h41.18a8,8,0,0,1,8,8Z"/><rect class="cls-8" x="723.52" y="348.3" width="36.55" height="98.74" rx="3"/><ellipse class="cls-5" cx="741.6" cy="365.29" rx="14.05" ry="13.84"/><ellipse class="cls-5" cx="741.6" cy="397.37" rx="14.05" ry="13.84"/><ellipse class="cls-5" cx="741.6" cy="429.46" rx="14.05" ry="13.84"/><path class="cls-6" d="M738.31,363.8a7.12,7.12,0,0,0-3.81-1.43,13.39,13.39,0,0,0-1.9,0c-.69,0-1.06-.35-.75-.92a21.59,21.59,0,0,1,1.8-2.9,2.16,2.16,0,0,1,2.93-.36,10.4,10.4,0,0,1,3.6,3.62s.07.07.24.06c-.24-.67-.42-1.37-.71-2a7.55,7.55,0,0,0-2.25-2.77c-.76-.61-.7-1.09.24-1.39a17.53,17.53,0,0,1,2.86-.69,2.21,2.21,0,0,1,2.59,1.87,10.69,10.69,0,0,1-.09,5.18,6.61,6.61,0,0,0,1.52-3.94,12.12,12.12,0,0,0-.05-1.7c0-.67.36-1,1-.72a21.83,21.83,0,0,1,2.94,1.77,2.09,2.09,0,0,1,.32,2.93,11.41,11.41,0,0,1-3.78,3.66c.18,0,.36,0,.54-.08l.54-.14a7.81,7.81,0,0,0,3.89-2.65c.58-.71,1.09-.66,1.36.19a20.28,20.28,0,0,1,.74,3,2.14,2.14,0,0,1-1.77,2.43,10.47,10.47,0,0,1-5.36-.09l-.07.15c.69.34,1.37.73,2.09,1a7.66,7.66,0,0,0,3.53.35c.9-.09,1.22.32.8,1.1a19.1,19.1,0,0,1-1.6,2.58,2.2,2.2,0,0,1-3.08.47,10.13,10.13,0,0,1-3.61-3.69c0-.05-.07-.08-.15-.15a7.54,7.54,0,0,0,2.9,5c.78.63.73,1.11-.26,1.41a16.92,16.92,0,0,1-3,.68,2.16,2.16,0,0,1-2.44-1.85,10.07,10.07,0,0,1,.13-5.17l-.15-.07a21.76,21.76,0,0,0-1,2,7.17,7.17,0,0,0-.39,3.47c.12,1-.28,1.29-1.19.84A18.2,18.2,0,0,1,735,373.3a2.16,2.16,0,0,1-.5-3.16,10.53,10.53,0,0,1,3.76-3.53l-.08-.17c-.78.28-1.58.51-2.32.85a7.44,7.44,0,0,0-2.64,2.18c-.49.61-1,.55-1.27-.19a18.44,18.44,0,0,1-.75-3.08,2.08,2.08,0,0,1,1.85-2.41,14.81,14.81,0,0,1,2.66-.27A23.22,23.22,0,0,1,738.31,363.8Zm.1,1.5a3.2,3.2,0,0,0,6.39,0,3.2,3.2,0,0,0-3.19-3.18A3.16,3.16,0,0,0,738.41,365.3Z"/><path class="cls-6" d="M738.31,395.89a7,7,0,0,0-3.81-1.43,13.39,13.39,0,0,0-1.9,0c-.69,0-1.06-.35-.75-.93a21.59,21.59,0,0,1,1.8-2.9,2.16,2.16,0,0,1,2.93-.36,10.48,10.48,0,0,1,3.6,3.62c0,.05.07.08.24.07-.24-.68-.42-1.38-.71-2a7.59,7.59,0,0,0-2.25-2.78c-.76-.6-.7-1.09.24-1.39a19.86,19.86,0,0,1,2.86-.69,2.21,2.21,0,0,1,2.59,1.88,10.65,10.65,0,0,1-.09,5.17,6.58,6.58,0,0,0,1.52-3.93,12.21,12.21,0,0,0-.05-1.71c0-.66.36-1,1-.71a20.84,20.84,0,0,1,2.94,1.77,2.09,2.09,0,0,1,.32,2.93,11.38,11.38,0,0,1-3.78,3.65,5,5,0,0,0,.54-.08,3.58,3.58,0,0,0,.54-.14,7.75,7.75,0,0,0,3.89-2.65c.58-.7,1.09-.66,1.36.19a20.28,20.28,0,0,1,.74,3,2.13,2.13,0,0,1-1.77,2.43,10.37,10.37,0,0,1-5.36-.09l-.07.16c.69.33,1.37.72,2.09,1a7.8,7.8,0,0,0,3.53.36c.9-.1,1.22.31.8,1.1a18.39,18.39,0,0,1-1.6,2.57,2.19,2.19,0,0,1-3.08.47,10.06,10.06,0,0,1-3.61-3.69s-.07-.07-.15-.14a7.52,7.52,0,0,0,2.9,5c.78.64.73,1.11-.26,1.42a17.84,17.84,0,0,1-3,.67,2.15,2.15,0,0,1-2.44-1.85,10.07,10.07,0,0,1,.13-5.17l-.15-.07c-.34.67-.73,1.31-1,2a7.19,7.19,0,0,0-.39,3.47c.12,1-.28,1.3-1.19.84a18.14,18.14,0,0,1-2.47-1.48,2.17,2.17,0,0,1-.5-3.17,10.53,10.53,0,0,1,3.76-3.53l-.08-.17c-.78.28-1.58.51-2.32.85a7.44,7.44,0,0,0-2.64,2.18c-.49.61-1,.56-1.27-.18a18.32,18.32,0,0,1-.75-3.09,2.08,2.08,0,0,1,1.85-2.41,15.78,15.78,0,0,1,2.66-.27A21.15,21.15,0,0,1,738.31,395.89Zm.1,1.49a3.14,3.14,0,0,0,3.2,3.14,3.18,3.18,0,0,0,3.19-3.11,3.22,3.22,0,0,0-3.19-3.18A3.17,3.17,0,0,0,738.41,397.38Z"/><path class="cls-6" d="M738.31,428a7.12,7.12,0,0,0-3.81-1.43,13.39,13.39,0,0,0-1.9,0c-.69,0-1.06-.35-.75-.93a22.13,22.13,0,0,1,1.8-2.89,2.16,2.16,0,0,1,2.93-.37,10.51,10.51,0,0,1,3.6,3.63s.07.07.24.06c-.24-.68-.42-1.38-.71-2a7.55,7.55,0,0,0-2.25-2.77c-.76-.61-.7-1.09.24-1.39a17.53,17.53,0,0,1,2.86-.69,2.21,2.21,0,0,1,2.59,1.87,10.69,10.69,0,0,1-.09,5.18,6.61,6.61,0,0,0,1.52-3.94,12.07,12.07,0,0,0-.05-1.7c0-.67.36-1,1-.72a21.83,21.83,0,0,1,2.94,1.77,2.09,2.09,0,0,1,.32,2.93,11.41,11.41,0,0,1-3.78,3.66l.54-.08.54-.14a7.81,7.81,0,0,0,3.89-2.65c.58-.71,1.09-.66,1.36.18a20.72,20.72,0,0,1,.74,3,2.13,2.13,0,0,1-1.77,2.42,10.37,10.37,0,0,1-5.36-.08l-.07.15c.69.34,1.37.73,2.09,1a7.66,7.66,0,0,0,3.53.35c.9-.09,1.22.31.8,1.1a19.1,19.1,0,0,1-1.6,2.58,2.2,2.2,0,0,1-3.08.47,10.13,10.13,0,0,1-3.61-3.69s-.07-.08-.15-.15a7.54,7.54,0,0,0,2.9,5c.78.63.73,1.11-.26,1.41a16.92,16.92,0,0,1-3,.68,2.16,2.16,0,0,1-2.44-1.86,10.08,10.08,0,0,1,.13-5.17l-.15-.06a21.76,21.76,0,0,0-1,2,7.17,7.17,0,0,0-.39,3.47c.12,1-.28,1.29-1.19.84a18.2,18.2,0,0,1-2.47-1.49,2.16,2.16,0,0,1-.5-3.16,10.44,10.44,0,0,1,3.76-3.53l-.08-.17c-.78.28-1.58.5-2.32.85a7.41,7.41,0,0,0-2.64,2.17c-.49.61-1,.56-1.27-.18a18.44,18.44,0,0,1-.75-3.08A2.07,2.07,0,0,1,733,428a14.82,14.82,0,0,1,2.66-.28A25.79,25.79,0,0,1,738.31,428Zm.1,1.49a3.2,3.2,0,0,0,6.39,0,3.2,3.2,0,0,0-3.19-3.18A3.16,3.16,0,0,0,738.41,429.46Z"/><path class="cls-5" d="M884.75,598.07H827.57V491.65a8,8,0,0,1,8-8h41.18a8,8,0,0,1,8,8Z"/><rect class="cls-7" x="837.39" y="489.84" width="36.55" height="98.74" rx="3"/><ellipse class="cls-5" cx="855.48" cy="506.84" rx="14.05" ry="13.84"/><ellipse class="cls-5" cx="855.48" cy="538.92" rx="14.05" ry="13.84"/><ellipse class="cls-5" cx="855.48" cy="571" rx="14.05" ry="13.84"/><path class="cls-6" d="M852.18,505.35a7,7,0,0,0-3.81-1.43,13.39,13.39,0,0,0-1.9,0c-.69,0-1.06-.35-.75-.93a21.59,21.59,0,0,1,1.8-2.9,2.16,2.16,0,0,1,2.93-.36,10.48,10.48,0,0,1,3.6,3.62c0,.05.07.08.24.07-.24-.68-.42-1.38-.71-2a7.59,7.59,0,0,0-2.25-2.78c-.76-.6-.7-1.09.24-1.38a18.65,18.65,0,0,1,2.86-.7,2.21,2.21,0,0,1,2.59,1.88,10.65,10.65,0,0,1-.09,5.17,6.58,6.58,0,0,0,1.52-3.93,12.21,12.21,0,0,0-.05-1.71c0-.66.36-1,1-.71A20.29,20.29,0,0,1,862.3,499a2.09,2.09,0,0,1,.32,2.93,11.38,11.38,0,0,1-3.78,3.65,5,5,0,0,0,.54-.08,3.58,3.58,0,0,0,.54-.14,7.75,7.75,0,0,0,3.89-2.65c.58-.7,1.09-.66,1.36.19a20.28,20.28,0,0,1,.74,3,2.12,2.12,0,0,1-1.77,2.43,10.37,10.37,0,0,1-5.36-.09l-.07.16c.69.33,1.37.72,2.09,1a7.8,7.8,0,0,0,3.53.36c.9-.09,1.22.31.8,1.1a19.31,19.31,0,0,1-1.59,2.57,2.2,2.2,0,0,1-3.09.47,10.14,10.14,0,0,1-3.61-3.69s-.07-.07-.15-.14a7.52,7.52,0,0,0,2.9,5c.78.64.73,1.11-.26,1.42a16.9,16.9,0,0,1-3,.67,2.15,2.15,0,0,1-2.44-1.85,10.07,10.07,0,0,1,.13-5.17l-.15-.07c-.34.67-.73,1.31-1,2a7.31,7.31,0,0,0-.39,3.47c.12,1-.28,1.3-1.19.84a18.14,18.14,0,0,1-2.47-1.48,2.17,2.17,0,0,1-.5-3.17,10.53,10.53,0,0,1,3.76-3.53L852,508c-.78.28-1.58.51-2.32.85a7.44,7.44,0,0,0-2.64,2.18c-.49.61-1,.56-1.27-.18a19.33,19.33,0,0,1-.75-3.09,2.08,2.08,0,0,1,1.85-2.41,15.78,15.78,0,0,1,2.66-.27A25.79,25.79,0,0,1,852.18,505.35Zm.1,1.49a3.14,3.14,0,0,0,3.2,3.14,3.18,3.18,0,0,0,3.19-3.11,3.22,3.22,0,0,0-3.19-3.18A3.17,3.17,0,0,0,852.28,506.84Z"/><path class="cls-6" d="M852.18,537.43a7.12,7.12,0,0,0-3.81-1.43,13.39,13.39,0,0,0-1.9,0c-.69,0-1.06-.35-.75-.93a22.13,22.13,0,0,1,1.8-2.89,2.15,2.15,0,0,1,2.93-.36,10.4,10.4,0,0,1,3.6,3.62s.07.07.24.06c-.24-.68-.42-1.37-.71-2a7.55,7.55,0,0,0-2.25-2.77c-.76-.61-.7-1.09.24-1.39a17.53,17.53,0,0,1,2.86-.69,2.21,2.21,0,0,1,2.59,1.87,10.69,10.69,0,0,1-.09,5.18,6.61,6.61,0,0,0,1.52-3.94,12.12,12.12,0,0,0-.05-1.7c0-.67.36-1,1-.72a21.23,21.23,0,0,1,2.94,1.77,2.09,2.09,0,0,1,.32,2.93,11.41,11.41,0,0,1-3.78,3.66c.18,0,.36,0,.54-.08l.54-.14a7.81,7.81,0,0,0,3.89-2.65c.58-.71,1.09-.66,1.36.19a20.28,20.28,0,0,1,.74,3,2.13,2.13,0,0,1-1.77,2.43,10.47,10.47,0,0,1-5.36-.09l-.07.15c.69.34,1.37.73,2.09,1a7.66,7.66,0,0,0,3.53.35c.9-.09,1.22.31.8,1.1a20.09,20.09,0,0,1-1.59,2.58,2.21,2.21,0,0,1-3.09.47,10.21,10.21,0,0,1-3.61-3.69s-.07-.08-.15-.15a7.54,7.54,0,0,0,2.9,5c.78.63.73,1.11-.26,1.41a16.92,16.92,0,0,1-3,.68,2.16,2.16,0,0,1-2.44-1.86,10,10,0,0,1,.13-5.16l-.15-.07a21.76,21.76,0,0,0-1,2,7.29,7.29,0,0,0-.39,3.47c.12,1-.28,1.29-1.19.84a18.2,18.2,0,0,1-2.47-1.49,2.16,2.16,0,0,1-.5-3.16,10.53,10.53,0,0,1,3.76-3.53l-.08-.17c-.78.28-1.58.5-2.32.85a7.51,7.51,0,0,0-2.64,2.17c-.49.61-1,.56-1.27-.18a19.48,19.48,0,0,1-.75-3.08,2.07,2.07,0,0,1,1.85-2.41,14,14,0,0,1,2.66-.27A23.22,23.22,0,0,1,852.18,537.43Zm.1,1.5a3.2,3.2,0,0,0,6.39,0,3.2,3.2,0,0,0-3.19-3.18A3.16,3.16,0,0,0,852.28,538.93Z"/><path class="cls-6" d="M852.18,569.52a7,7,0,0,0-3.81-1.43,13.39,13.39,0,0,0-1.9,0c-.69,0-1.06-.35-.75-.93a21.59,21.59,0,0,1,1.8-2.9,2.16,2.16,0,0,1,2.93-.36,10.48,10.48,0,0,1,3.6,3.62c0,.05.07.08.24.07-.24-.68-.42-1.38-.71-2a7.64,7.64,0,0,0-2.25-2.77c-.76-.6-.7-1.09.24-1.39a19.86,19.86,0,0,1,2.86-.69A2.21,2.21,0,0,1,857,562.6a10.68,10.68,0,0,1-.09,5.18,6.58,6.58,0,0,0,1.52-3.93,12.21,12.21,0,0,0-.05-1.71c0-.66.36-1,1-.71a20.29,20.29,0,0,1,2.94,1.77,2.09,2.09,0,0,1,.32,2.93,11.38,11.38,0,0,1-3.78,3.65,5,5,0,0,0,.54-.08,3.58,3.58,0,0,0,.54-.14,7.75,7.75,0,0,0,3.89-2.65c.58-.7,1.09-.66,1.36.19a20.28,20.28,0,0,1,.74,3,2.13,2.13,0,0,1-1.77,2.43,10.37,10.37,0,0,1-5.36-.09l-.07.16c.69.33,1.37.72,2.09,1a7.8,7.8,0,0,0,3.53.36c.9-.1,1.22.31.8,1.1a19.31,19.31,0,0,1-1.59,2.57,2.2,2.2,0,0,1-3.09.47,10.14,10.14,0,0,1-3.61-3.69s-.07-.07-.15-.14a7.52,7.52,0,0,0,2.9,5c.78.64.73,1.11-.26,1.41a16.92,16.92,0,0,1-3,.68,2.15,2.15,0,0,1-2.44-1.85,10.07,10.07,0,0,1,.13-5.17l-.15-.07a21.76,21.76,0,0,0-1,2,7.31,7.31,0,0,0-.39,3.47c.12,1-.28,1.3-1.19.84a18.14,18.14,0,0,1-2.47-1.48,2.17,2.17,0,0,1-.5-3.17,10.53,10.53,0,0,1,3.76-3.53l-.08-.17c-.78.28-1.58.51-2.32.85a7.44,7.44,0,0,0-2.64,2.18c-.49.61-1,.56-1.27-.18a19.59,19.59,0,0,1-.75-3.09,2.08,2.08,0,0,1,1.85-2.41,15.78,15.78,0,0,1,2.66-.27A21.15,21.15,0,0,1,852.18,569.52Zm.1,1.49a3.14,3.14,0,0,0,3.2,3.14,3.18,3.18,0,0,0,3.19-3.11,3.22,3.22,0,0,0-3.19-3.18A3.17,3.17,0,0,0,852.28,571Z"/><path class="cls-5" d="M827.57,740.43H770.39V634a8,8,0,0,1,8-8h41.18a8,8,0,0,1,8,8Z"/><rect class="cls-8" x="780.21" y="632.2" width="36.55" height="98.74" rx="3"/><ellipse class="cls-5" cx="798.29" cy="649.19" rx="14.05" ry="13.84"/><ellipse class="cls-5" cx="798.29" cy="681.27" rx="14.05" ry="13.84"/><ellipse class="cls-5" cx="798.29" cy="713.36" rx="14.05" ry="13.84"/><path class="cls-6" d="M795,647.7a7.12,7.12,0,0,0-3.82-1.43,13.27,13.27,0,0,0-1.89,0c-.69,0-1.06-.35-.75-.93a23.18,23.18,0,0,1,1.79-2.89,2.16,2.16,0,0,1,2.93-.37,10.34,10.34,0,0,1,3.6,3.63s.08.07.25.06c-.24-.68-.43-1.38-.71-2a7.55,7.55,0,0,0-2.25-2.77c-.76-.61-.7-1.09.24-1.39a17.53,17.53,0,0,1,2.86-.69,2.21,2.21,0,0,1,2.59,1.87,10.81,10.81,0,0,1-.09,5.18,6.61,6.61,0,0,0,1.52-3.94,12.07,12.07,0,0,0,0-1.7c-.05-.67.36-1,1-.72a21.83,21.83,0,0,1,2.94,1.77,2.09,2.09,0,0,1,.32,2.93,11.41,11.41,0,0,1-3.78,3.66l.54-.08.54-.14a7.81,7.81,0,0,0,3.89-2.65c.58-.71,1.09-.66,1.36.18a20.72,20.72,0,0,1,.74,3,2.13,2.13,0,0,1-1.78,2.42,10.33,10.33,0,0,1-5.35-.08l-.07.15c.69.34,1.37.73,2.09,1a7.66,7.66,0,0,0,3.53.35c.9-.09,1.22.31.8,1.1a19.1,19.1,0,0,1-1.6,2.58,2.2,2.2,0,0,1-3.08.47,10.13,10.13,0,0,1-3.61-3.69c0-.05-.07-.08-.15-.15a7.57,7.57,0,0,0,2.89,5c.79.63.74,1.11-.25,1.41a16.92,16.92,0,0,1-3,.68,2.16,2.16,0,0,1-2.44-1.86,10.08,10.08,0,0,1,.13-5.17l-.15-.06a19.48,19.48,0,0,0-1,2,7.17,7.17,0,0,0-.39,3.47c.12,1-.28,1.29-1.19.84a17.61,17.61,0,0,1-2.47-1.49,2.16,2.16,0,0,1-.5-3.16,10.36,10.36,0,0,1,3.76-3.53l-.08-.17c-.78.28-1.58.5-2.33.85a7.46,7.46,0,0,0-2.63,2.17c-.49.61-1,.56-1.27-.18a19.51,19.51,0,0,1-.76-3.08,2.09,2.09,0,0,1,1.86-2.41,14.82,14.82,0,0,1,2.66-.28A25.79,25.79,0,0,1,795,647.7Zm.1,1.49a3.15,3.15,0,0,0,3.2,3.15,3.15,3.15,0,1,0-3.2-3.15Z"/><path class="cls-6" d="M795,679.79a7,7,0,0,0-3.82-1.43,14.92,14.92,0,0,0-1.89,0c-.69,0-1.06-.34-.75-.92a22.58,22.58,0,0,1,1.79-2.9,2.16,2.16,0,0,1,2.93-.36,10.31,10.31,0,0,1,3.6,3.62s.08.08.25.07c-.24-.68-.43-1.38-.71-2a7.64,7.64,0,0,0-2.25-2.77c-.76-.6-.7-1.09.24-1.39a19.86,19.86,0,0,1,2.86-.69,2.21,2.21,0,0,1,2.59,1.87,10.81,10.81,0,0,1-.09,5.18,6.58,6.58,0,0,0,1.52-3.93,12.21,12.21,0,0,0,0-1.71c-.05-.66.36-1,1-.71a20.84,20.84,0,0,1,2.94,1.77,2.09,2.09,0,0,1,.32,2.93,11.38,11.38,0,0,1-3.78,3.65,5,5,0,0,0,.54-.08,3.58,3.58,0,0,0,.54-.14,7.81,7.81,0,0,0,3.89-2.65c.58-.7,1.09-.66,1.36.19a20.28,20.28,0,0,1,.74,3,2.14,2.14,0,0,1-1.78,2.43,10.33,10.33,0,0,1-5.35-.09l-.07.16c.69.33,1.37.72,2.09,1a7.8,7.8,0,0,0,3.53.36c.9-.1,1.22.31.8,1.1a18.39,18.39,0,0,1-1.6,2.57,2.2,2.2,0,0,1-3.08.47,10.06,10.06,0,0,1-3.61-3.69s-.07-.07-.15-.14a7.55,7.55,0,0,0,2.89,5c.79.64.74,1.11-.25,1.41a16.92,16.92,0,0,1-3,.68,2.15,2.15,0,0,1-2.44-1.85,10.07,10.07,0,0,1,.13-5.17l-.15-.07a19.48,19.48,0,0,0-1,2,7.19,7.19,0,0,0-.39,3.47c.12,1-.28,1.3-1.19.84a17.55,17.55,0,0,1-2.47-1.48,2.17,2.17,0,0,1-.5-3.17,10.44,10.44,0,0,1,3.76-3.53l-.08-.17c-.78.28-1.58.51-2.33.85a7.49,7.49,0,0,0-2.63,2.18c-.49.61-1,.56-1.27-.18a19.63,19.63,0,0,1-.76-3.09,2.1,2.1,0,0,1,1.86-2.41,14.81,14.81,0,0,1,2.66-.27A21.15,21.15,0,0,1,795,679.79Zm.1,1.49a3.13,3.13,0,0,0,3.2,3.14,3.18,3.18,0,0,0,3.19-3.11,3.22,3.22,0,0,0-3.19-3.18A3.17,3.17,0,0,0,795.1,681.28Z"/><path class="cls-6" d="M795,711.87a7.12,7.12,0,0,0-3.82-1.43,13.27,13.27,0,0,0-1.89,0c-.69,0-1.06-.35-.75-.93a23.18,23.18,0,0,1,1.79-2.89,2.16,2.16,0,0,1,2.93-.37,10.34,10.34,0,0,1,3.6,3.63s.08.07.25.06c-.24-.68-.43-1.38-.71-2a7.47,7.47,0,0,0-2.25-2.77c-.76-.61-.7-1.09.24-1.39a18.65,18.65,0,0,1,2.86-.7,2.22,2.22,0,0,1,2.59,1.88,10.81,10.81,0,0,1-.09,5.18,6.64,6.64,0,0,0,1.52-3.94,12.07,12.07,0,0,0,0-1.7c-.05-.67.36-1,1-.72a21.83,21.83,0,0,1,2.94,1.77,2.09,2.09,0,0,1,.32,2.93,11.29,11.29,0,0,1-3.78,3.65l.54-.07.54-.14a7.81,7.81,0,0,0,3.89-2.65c.58-.71,1.09-.66,1.36.18a20.92,20.92,0,0,1,.74,3,2.14,2.14,0,0,1-1.78,2.43,10.33,10.33,0,0,1-5.35-.09l-.07.16c.69.34,1.37.73,2.09,1a7.66,7.66,0,0,0,3.53.35c.9-.09,1.22.31.8,1.1a18.39,18.39,0,0,1-1.6,2.57,2.19,2.19,0,0,1-3.08.48,10.13,10.13,0,0,1-3.61-3.69s-.07-.08-.15-.15a7.52,7.52,0,0,0,2.89,5c.79.64.74,1.11-.25,1.42a16.05,16.05,0,0,1-3,.67,2.15,2.15,0,0,1-2.44-1.85,10.07,10.07,0,0,1,.13-5.17l-.15-.06a19.48,19.48,0,0,0-1,2,7.17,7.17,0,0,0-.39,3.47c.12,1-.28,1.29-1.19.83a16.65,16.65,0,0,1-2.47-1.48,2.16,2.16,0,0,1-.5-3.16,10.36,10.36,0,0,1,3.76-3.53l-.08-.17c-.78.28-1.58.5-2.33.85a7.36,7.36,0,0,0-2.63,2.17c-.49.61-1,.56-1.27-.18a19.36,19.36,0,0,1-.76-3.09,2.08,2.08,0,0,1,1.86-2.4,14.82,14.82,0,0,1,2.66-.28A25.79,25.79,0,0,1,795,711.87Zm.1,1.49a3.15,3.15,0,0,0,3.2,3.15,3.15,3.15,0,1,0-3.2-3.15Z"/><path class="cls-1" d="M664.51,342.1H705.7a8,8,0,0,1,8,8V456.53a0,0,0,0,1,0,0H656.51a0,0,0,0,1,0,0V350.1A8,8,0,0,1,664.51,342.1Z"/><rect class="cls-2" x="666.34" y="348.3" width="36.55" height="98.74" rx="3"/><ellipse class="cls-5" cx="684.42" cy="365.29" rx="14.05" ry="13.84"/><ellipse class="cls-5" cx="684.42" cy="397.37" rx="14.05" ry="13.84"/><ellipse class="cls-5" cx="684.42" cy="429.46" rx="14.05" ry="13.84"/><path class="cls-6" d="M681.13,363.8a7.15,7.15,0,0,0-3.82-1.43,13.27,13.27,0,0,0-1.89,0c-.69,0-1.06-.35-.75-.92a22.58,22.58,0,0,1,1.79-2.9,2.16,2.16,0,0,1,2.93-.36,10.23,10.23,0,0,1,3.6,3.62s.07.07.24.06c-.23-.67-.42-1.37-.71-2a7.43,7.43,0,0,0-2.24-2.77c-.76-.61-.7-1.09.24-1.39a17.53,17.53,0,0,1,2.86-.69,2.21,2.21,0,0,1,2.59,1.87,10.81,10.81,0,0,1-.09,5.18,6.61,6.61,0,0,0,1.52-3.94,12.12,12.12,0,0,0,0-1.7c-.05-.67.36-1,1-.72a21.83,21.83,0,0,1,2.94,1.77,2.09,2.09,0,0,1,.32,2.93,11.41,11.41,0,0,1-3.78,3.66c.18,0,.36,0,.54-.08l.54-.14a7.81,7.81,0,0,0,3.89-2.65c.58-.71,1.08-.66,1.36.19a20.28,20.28,0,0,1,.74,3,2.15,2.15,0,0,1-1.78,2.43,10.44,10.44,0,0,1-5.35-.09l-.07.15c.69.34,1.37.73,2.09,1a7.66,7.66,0,0,0,3.53.35c.9-.09,1.22.32.8,1.1a19.1,19.1,0,0,1-1.6,2.58,2.21,2.21,0,0,1-3.09.47,10.19,10.19,0,0,1-3.6-3.69c0-.05-.08-.08-.15-.15a7.57,7.57,0,0,0,2.89,5c.79.63.73,1.11-.25,1.41a16.92,16.92,0,0,1-3,.68,2.16,2.16,0,0,1-2.44-1.85,10,10,0,0,1,.13-5.17l-.15-.07a19.48,19.48,0,0,0-1,2,7.05,7.05,0,0,0-.39,3.47c.12,1-.28,1.29-1.19.84a17.61,17.61,0,0,1-2.47-1.49,2.16,2.16,0,0,1-.5-3.16,10.44,10.44,0,0,1,3.76-3.53l-.08-.17c-.78.28-1.58.51-2.33.85a7.49,7.49,0,0,0-2.63,2.18c-.5.61-1,.55-1.27-.19a19.51,19.51,0,0,1-.76-3.08,2.08,2.08,0,0,1,1.85-2.41,15,15,0,0,1,2.67-.27A23.22,23.22,0,0,1,681.13,363.8Zm.1,1.5a3.15,3.15,0,0,0,3.2,3.14,3.15,3.15,0,1,0-3.2-3.14Z"/><path class="cls-6" d="M681.13,395.89a7,7,0,0,0-3.82-1.43,13.27,13.27,0,0,0-1.89,0c-.69,0-1.06-.35-.75-.93a22.58,22.58,0,0,1,1.79-2.9,2.16,2.16,0,0,1,2.93-.36,10.31,10.31,0,0,1,3.6,3.62c0,.05.07.08.24.07-.23-.68-.42-1.38-.71-2a7.46,7.46,0,0,0-2.24-2.78c-.76-.6-.7-1.09.24-1.39a19.86,19.86,0,0,1,2.86-.69A2.21,2.21,0,0,1,686,389a10.77,10.77,0,0,1-.09,5.17,6.58,6.58,0,0,0,1.52-3.93,12.21,12.21,0,0,0,0-1.71c-.05-.66.36-1,1-.71a20.84,20.84,0,0,1,2.94,1.77,2.09,2.09,0,0,1,.32,2.93,11.38,11.38,0,0,1-3.78,3.65,5,5,0,0,0,.54-.08,3.58,3.58,0,0,0,.54-.14,7.75,7.75,0,0,0,3.89-2.65c.58-.7,1.08-.66,1.36.19a20.28,20.28,0,0,1,.74,3,2.14,2.14,0,0,1-1.78,2.43,10.33,10.33,0,0,1-5.35-.09l-.07.16c.69.33,1.37.72,2.09,1a7.8,7.8,0,0,0,3.53.36c.9-.1,1.22.31.8,1.1a18.39,18.39,0,0,1-1.6,2.57,2.2,2.2,0,0,1-3.09.47,10.11,10.11,0,0,1-3.6-3.69s-.08-.07-.15-.14a7.55,7.55,0,0,0,2.89,5c.79.64.73,1.11-.25,1.42a17.84,17.84,0,0,1-3,.67,2.15,2.15,0,0,1-2.44-1.85,10,10,0,0,1,.13-5.17l-.15-.07a21.78,21.78,0,0,0-1,2,7.07,7.07,0,0,0-.39,3.47c.12,1-.28,1.3-1.19.84a17.55,17.55,0,0,1-2.47-1.48,2.17,2.17,0,0,1-.5-3.17,10.44,10.44,0,0,1,3.76-3.53l-.08-.17c-.78.28-1.58.51-2.33.85a7.49,7.49,0,0,0-2.63,2.18c-.5.61-1,.56-1.27-.18a19.36,19.36,0,0,1-.76-3.09,2.09,2.09,0,0,1,1.85-2.41,16,16,0,0,1,2.67-.27A21.15,21.15,0,0,1,681.13,395.89Zm.1,1.49a3.13,3.13,0,0,0,3.2,3.14,3.18,3.18,0,0,0,3.19-3.11,3.22,3.22,0,0,0-3.19-3.18A3.17,3.17,0,0,0,681.23,397.38Z"/><path class="cls-6" d="M681.13,428a7.15,7.15,0,0,0-3.82-1.43,13.27,13.27,0,0,0-1.89,0c-.69,0-1.06-.35-.75-.93a23.18,23.18,0,0,1,1.79-2.89,2.16,2.16,0,0,1,2.93-.37A10.34,10.34,0,0,1,683,426s.07.07.24.06c-.23-.68-.42-1.38-.71-2a7.43,7.43,0,0,0-2.24-2.77c-.76-.61-.7-1.09.24-1.39a17.53,17.53,0,0,1,2.86-.69,2.21,2.21,0,0,1,2.59,1.87,10.81,10.81,0,0,1-.09,5.18,6.61,6.61,0,0,0,1.52-3.94,12.07,12.07,0,0,0,0-1.7c-.05-.67.36-1,1-.72a21.83,21.83,0,0,1,2.94,1.77,2.09,2.09,0,0,1,.32,2.93,11.41,11.41,0,0,1-3.78,3.66l.54-.08.54-.14a7.81,7.81,0,0,0,3.89-2.65c.58-.71,1.08-.66,1.36.18a20.72,20.72,0,0,1,.74,3,2.13,2.13,0,0,1-1.78,2.42,10.33,10.33,0,0,1-5.35-.08l-.07.15c.69.34,1.37.73,2.09,1a7.66,7.66,0,0,0,3.53.35c.9-.09,1.22.31.8,1.1a19.1,19.1,0,0,1-1.6,2.58,2.21,2.21,0,0,1-3.09.47,10.19,10.19,0,0,1-3.6-3.69s-.08-.08-.15-.15a7.57,7.57,0,0,0,2.89,5c.79.63.73,1.11-.25,1.41a16.92,16.92,0,0,1-3,.68,2.16,2.16,0,0,1-2.44-1.86,10,10,0,0,1,.13-5.17l-.15-.06a19.48,19.48,0,0,0-1,2,7.05,7.05,0,0,0-.39,3.47c.12,1-.28,1.29-1.19.84a17.61,17.61,0,0,1-2.47-1.49,2.16,2.16,0,0,1-.5-3.16,10.36,10.36,0,0,1,3.76-3.53l-.08-.17c-.78.28-1.58.5-2.33.85a7.46,7.46,0,0,0-2.63,2.17c-.5.61-1,.56-1.27-.18a19.51,19.51,0,0,1-.76-3.08,2.08,2.08,0,0,1,1.85-2.41,15,15,0,0,1,2.67-.28A25.79,25.79,0,0,1,681.13,428Zm.1,1.49a3.15,3.15,0,0,0,3.2,3.15,3.15,3.15,0,1,0-3.2-3.15Z"/><path class="cls-5" d="M656.51,456.53H599.33V350.1a8,8,0,0,1,8-8h41.18a8,8,0,0,1,8,8Z"/><rect class="cls-8" x="609.16" y="348.3" width="36.55" height="98.74" rx="3"/><ellipse class="cls-5" cx="627.24" cy="365.29" rx="14.05" ry="13.84"/><ellipse class="cls-5" cx="627.24" cy="397.37" rx="14.05" ry="13.84"/><ellipse class="cls-5" cx="627.24" cy="429.46" rx="14.05" ry="13.84"/><path class="cls-6" d="M624,363.8a7.15,7.15,0,0,0-3.82-1.43,13.25,13.25,0,0,0-1.89,0c-.69,0-1.06-.35-.75-.92a22.58,22.58,0,0,1,1.79-2.9,2.16,2.16,0,0,1,2.93-.36,10.23,10.23,0,0,1,3.6,3.62s.07.07.24.06c-.23-.67-.42-1.37-.71-2a7.43,7.43,0,0,0-2.24-2.77c-.76-.61-.7-1.09.24-1.39a17.53,17.53,0,0,1,2.86-.69,2.21,2.21,0,0,1,2.58,1.87,10.69,10.69,0,0,1-.08,5.18,6.68,6.68,0,0,0,1.52-3.94,13.85,13.85,0,0,0-.05-1.7c0-.67.36-1,1-.72a21.83,21.83,0,0,1,2.94,1.77,2.08,2.08,0,0,1,.31,2.93,11.23,11.23,0,0,1-3.78,3.66c.19,0,.37,0,.55-.08l.54-.14a7.85,7.85,0,0,0,3.89-2.65c.58-.71,1.08-.66,1.36.19a20.28,20.28,0,0,1,.74,3,2.15,2.15,0,0,1-1.78,2.43,10.44,10.44,0,0,1-5.35-.09l-.07.15c.69.34,1.37.73,2.09,1a7.63,7.63,0,0,0,3.52.35c.91-.09,1.23.32.81,1.1a19.1,19.1,0,0,1-1.6,2.58,2.21,2.21,0,0,1-3.09.47,10.19,10.19,0,0,1-3.6-3.69c0-.05-.08-.08-.15-.15a7.57,7.57,0,0,0,2.89,5c.79.63.73,1.11-.25,1.41a16.92,16.92,0,0,1-3,.68,2.16,2.16,0,0,1-2.44-1.85,10,10,0,0,1,.13-5.17l-.15-.07a19.48,19.48,0,0,0-1,2,7.05,7.05,0,0,0-.39,3.47c.12,1-.28,1.29-1.19.84a17.61,17.61,0,0,1-2.47-1.49,2.15,2.15,0,0,1-.5-3.16,10.44,10.44,0,0,1,3.76-3.53l-.09-.17c-.77.28-1.57.51-2.32.85a7.49,7.49,0,0,0-2.63,2.18c-.5.61-1,.55-1.27-.19a18.47,18.47,0,0,1-.76-3.08,2.08,2.08,0,0,1,1.85-2.41,15,15,0,0,1,2.67-.27A23.22,23.22,0,0,1,624,363.8Zm.1,1.5a3.14,3.14,0,0,0,3.19,3.14,3.15,3.15,0,1,0-3.19-3.14Z"/><path class="cls-6" d="M624,395.89a7,7,0,0,0-3.82-1.43,13.25,13.25,0,0,0-1.89,0c-.69,0-1.06-.35-.75-.93a22.58,22.58,0,0,1,1.79-2.9,2.16,2.16,0,0,1,2.93-.36,10.31,10.31,0,0,1,3.6,3.62c0,.05.07.08.24.07-.23-.68-.42-1.38-.71-2a7.46,7.46,0,0,0-2.24-2.78c-.76-.6-.7-1.09.24-1.39a19.86,19.86,0,0,1,2.86-.69,2.21,2.21,0,0,1,2.58,1.88,10.65,10.65,0,0,1-.08,5.17,6.65,6.65,0,0,0,1.52-3.93,14,14,0,0,0-.05-1.71c0-.66.36-1,1-.71a20.84,20.84,0,0,1,2.94,1.77,2.08,2.08,0,0,1,.31,2.93,11.2,11.2,0,0,1-3.78,3.65,4.85,4.85,0,0,0,.55-.08,3.58,3.58,0,0,0,.54-.14,7.79,7.79,0,0,0,3.89-2.65c.58-.7,1.08-.66,1.36.19a20.28,20.28,0,0,1,.74,3,2.14,2.14,0,0,1-1.78,2.43,10.33,10.33,0,0,1-5.35-.09l-.07.16c.69.33,1.37.72,2.09,1a7.77,7.77,0,0,0,3.52.36c.91-.1,1.23.31.81,1.1a18.39,18.39,0,0,1-1.6,2.57,2.2,2.2,0,0,1-3.09.47,10.11,10.11,0,0,1-3.6-3.69s-.08-.07-.15-.14a7.55,7.55,0,0,0,2.89,5c.79.64.73,1.11-.25,1.42a17.84,17.84,0,0,1-3,.67,2.15,2.15,0,0,1-2.44-1.85,10,10,0,0,1,.13-5.17l-.15-.07a21.78,21.78,0,0,0-1,2,7.07,7.07,0,0,0-.39,3.47c.12,1-.28,1.3-1.19.84a17.55,17.55,0,0,1-2.47-1.48,2.17,2.17,0,0,1-.5-3.17,10.44,10.44,0,0,1,3.76-3.53l-.09-.17c-.77.28-1.57.51-2.32.85a7.49,7.49,0,0,0-2.63,2.18c-.5.61-1,.56-1.27-.18a18.34,18.34,0,0,1-.76-3.09,2.09,2.09,0,0,1,1.85-2.41,16,16,0,0,1,2.67-.27A21.15,21.15,0,0,1,624,395.89Zm.1,1.49a3.13,3.13,0,0,0,3.19,3.14,3.15,3.15,0,1,0-3.19-3.14Z"/><path class="cls-6" d="M624,428a7.15,7.15,0,0,0-3.82-1.43,13.25,13.25,0,0,0-1.89,0c-.69,0-1.06-.35-.75-.93a23.18,23.18,0,0,1,1.79-2.89,2.16,2.16,0,0,1,2.93-.37,10.34,10.34,0,0,1,3.6,3.63s.07.07.24.06c-.23-.68-.42-1.38-.71-2a7.43,7.43,0,0,0-2.24-2.77c-.76-.61-.7-1.09.24-1.39a17.53,17.53,0,0,1,2.86-.69,2.2,2.2,0,0,1,2.58,1.87,10.69,10.69,0,0,1-.08,5.18,6.68,6.68,0,0,0,1.52-3.94,13.79,13.79,0,0,0-.05-1.7c0-.67.36-1,1-.72a21.83,21.83,0,0,1,2.94,1.77,2.08,2.08,0,0,1,.31,2.93,11.23,11.23,0,0,1-3.78,3.66l.55-.08.54-.14a7.85,7.85,0,0,0,3.89-2.65c.58-.71,1.08-.66,1.36.18a20.72,20.72,0,0,1,.74,3A2.13,2.13,0,0,1,635.9,431a10.33,10.33,0,0,1-5.35-.08l-.07.15c.69.34,1.37.73,2.09,1a7.63,7.63,0,0,0,3.52.35c.91-.09,1.23.31.81,1.1a19.1,19.1,0,0,1-1.6,2.58,2.21,2.21,0,0,1-3.09.47,10.19,10.19,0,0,1-3.6-3.69s-.08-.08-.15-.15a7.57,7.57,0,0,0,2.89,5c.79.63.73,1.11-.25,1.41a16.92,16.92,0,0,1-3,.68,2.16,2.16,0,0,1-2.44-1.86,10,10,0,0,1,.13-5.17l-.15-.06a19.48,19.48,0,0,0-1,2,7.05,7.05,0,0,0-.39,3.47c.12,1-.28,1.29-1.19.84a17.61,17.61,0,0,1-2.47-1.49,2.16,2.16,0,0,1-.5-3.16,10.36,10.36,0,0,1,3.76-3.53l-.09-.17c-.77.28-1.57.5-2.32.85a7.46,7.46,0,0,0-2.63,2.17c-.5.61-1,.56-1.27-.18a18.47,18.47,0,0,1-.76-3.08,2.08,2.08,0,0,1,1.85-2.41,15,15,0,0,1,2.67-.28A25.79,25.79,0,0,1,624,428Zm.1,1.49a3.15,3.15,0,0,0,3.19,3.15,3.15,3.15,0,1,0,0-6.29A3.16,3.16,0,0,0,624.05,429.46Z"/><path class="cls-3" d="M591.88,902.32h0a7.44,7.44,0,0,1-7.45-7.45V283.17a7.44,7.44,0,0,1,7.45-7.45h0a7.44,7.44,0,0,1,7.45,7.45v611.7A7.44,7.44,0,0,1,591.88,902.32Z"/><rect class="cls-3" x="885.24" y="275.72" width="14.91" height="626.61" rx="7.45"/><path class="cls-1" d="M945,902.32h0a7.45,7.45,0,0,1-7.46-7.45V283.17a7.45,7.45,0,0,1,7.46-7.45h0a7.45,7.45,0,0,1,7.45,7.45v611.7A7.45,7.45,0,0,1,945,902.32Z"/><rect class="cls-1" x="900.15" y="456.53" width="37.37" height="11.26"/><rect class="cls-1" x="900.15" y="598.07" width="37.37" height="11.26"/><rect class="cls-1" x="900.15" y="740.85" width="37.37" height="11.26"/><rect class="cls-3" x="599.33" y="456.53" width="285.91" height="11.26"/><rect class="cls-3" x="599.33" y="598.07" width="285.91" height="11.26"/><rect class="cls-3" x="599.33" y="740.85" width="285.91" height="11.26"/><path class="cls-9" d="M211.21,385.88s-18.49-3.22-18.68-19.13S204,363.81,211.21,385.88Z"/><path class="cls-9" d="M210,370s-24.05-17.63-23.08-28.86S203.64,345.25,210,370Z"/><path class="cls-9" d="M207.7,347.57s-4.33-28.1,7.48-27.13S207.7,347.57,207.7,347.57Z"/><path class="cls-9" d="M210,361.39s-.81-28.75,10.8-24.88S210,361.39,210,361.39Z"/><path class="cls-9" d="M204.33,339.29s-13.93-1-14.9-12.08S199.79,325.41,204.33,339.29Z"/><path class="cls-9" d="M211.21,379.29s5.81-25.94,12.92-21.49S222.73,374.65,211.21,379.29Z"/><path class="cls-10" d="M197.12,470a.58.58,0,0,0,.77-.21c.29-.46,7.12-11.85,12.62-60.44s-7.87-78.44-8-78.73a.58.58,0,0,0-.77-.29.59.59,0,0,0-.29.77c.14.29,13.38,29.86,7.92,78.12s-12.38,59.85-12.45,60a.58.58,0,0,0,.18.8Z"/><path class="cls-11" d="M183,484.44s-10.25,9.66-22.64-35.06S165,359,174.33,367.87s28,50.38,27.1,79S183,484.44,183,484.44Z"/><path class="cls-7" d="M171.88,500.45s-45.57-9.83-48.28-21.84,19.75-2.71,13.94-9.29-29-19.75-29.43-30,1.94-8.32,10.07-8.52-13.63-19.17-10.11-30.59,9.72,2.91,14-4.84-2.71-14.32-.77-24,12.39-11.23,15.49,0,6.19,20.52,12.39,14.32,13.55-7.74,13.55,1.55-5.42,31.95,0,29.91,16.65-8.61,13.36,2.62-12.08,26.8-5.23,29.62,8.16,18.39,5.82,31.56S171.88,500.45,171.88,500.45Z"/><path class="cls-9" d="M194.94,490.78s-9.38-23.78-6.67-46.63,6.32-28,10.9-19,7.28,18.33,5.16-2.61-2.9-35.26,4.07-25.58,5.42,14.35,11.62-3.09,12-41.36,19.36-27.07,6.58,12.74,13.55,6.15,33-33.3,35.84-20.13-19.19,49.56-10.28,50.34,12.18,4.84,2.41,14-22.94,16.94-18.68,18.1,14.13-.22,9.68,7-40.37,13.06-33.5,16.27S209.37,494.43,194.94,490.78Z"/><path class="cls-11" d="M214.12,491.07s-11.14-8,10.16-36.17,71.29-35.14,64.49-18.49S246.05,495.06,214.12,491.07Z"/><path class="cls-12" d="M163.38,579.11l-7-49.79a4.07,4.07,0,0,1,4-4.63h70.32a4.06,4.06,0,0,1,4,4.71l-8,49.79a4.06,4.06,0,0,1-4,3.42H167.41A4.06,4.06,0,0,1,163.38,579.11Z"/><path class="cls-10" d="M179.36,525.27a.58.58,0,0,1-.56-.44c0-.1-2.42-10-10.45-36s-27.26-65.71-27.46-66.1a.58.58,0,1,1,1.05-.51c.19.4,19.47,40.2,27.52,66.27s10.44,36,10.47,36a.58.58,0,0,1-.43.7A.34.34,0,0,1,179.36,525.27Z"/><path class="cls-10" d="M185.94,525.27a.59.59,0,0,1-.58-.55c0-.54-.57-13.81,17.86-59.1s44.45-65.11,44.72-65.3a.58.58,0,1,1,.69.93c-.26.19-26,19.81-44.34,64.8s-17.77,58.47-17.77,58.61a.57.57,0,0,1-.54.61Z"/><path class="cls-10" d="M183.62,525.27h-.05a.58.58,0,0,1-.53-.63c0-.17,1.53-17.14,0-30.47s-6.91-53.8-7-54.2a.58.58,0,0,1,.5-.65.59.59,0,0,1,.66.49c.05.41,5.43,40.82,7,54.22s0,30.54,0,30.71A.59.59,0,0,1,183.62,525.27Z"/><path class="cls-10" d="M204.92,525.27a.58.58,0,0,1-.58-.56A66.66,66.66,0,0,1,227,475.85c23.44-20.36,40.29-26.38,40.46-26.44a.57.57,0,0,1,.74.36.58.58,0,0,1-.36.74c-.16.05-16.83,6-40.08,26.22a65.43,65.43,0,0,0-22.25,47.94.58.58,0,0,1-.56.6Z"/><path class="cls-1" d="M590,793.75H567.42a12.82,12.82,0,0,1-12.8-12.81V598h2.32v183a10.49,10.49,0,0,0,10.48,10.48H590Z"/><path class="cls-1" d="M590,778.84H578.4A12.81,12.81,0,0,1,565.6,766v-168h2.32V766a10.49,10.49,0,0,0,10.48,10.48H590Z"/><path class="cls-1" d="M590,760.18a12.81,12.81,0,0,1-12.8-12.8V598.06h2.32V747.38A10.49,10.49,0,0,0,590,757.86Z"/><rect class="cls-4" x="646.48" y="512.11" width="2.32" height="85.96"/><rect class="cls-4" x="657.46" y="512.2" width="2.32" height="85.87"/><rect class="cls-4" x="669.1" y="512.2" width="2.32" height="85.87"/><rect class="cls-5" x="628.95" y="699.46" width="92.88" height="202.08" rx="8"/><rect class="cls-1" x="590.04" y="699.46" width="92.88" height="202.08" rx="8"/><path class="cls-5" d="M676.53,730.46V880.75a2.47,2.47,0,0,1-2.51,2.44H597.35a2.47,2.47,0,0,1-2.51-2.44V730.46a2.39,2.39,0,0,1,.79-1.78,2.54,2.54,0,0,1,1.72-.66H674A2.47,2.47,0,0,1,676.53,730.46Z"/><circle class="cls-3" cx="633.02" cy="714.08" r="6.82"/><rect class="cls-5" x="597.93" y="731.84" width="75.51" height="147.53" rx="4"/><path class="cls-6" d="M597.93,745.4h33.55a5,5,0,0,1,5,5v85.25a5,5,0,0,1-5,5H597.93a0,0,0,0,1,0,0V745.4A0,0,0,0,1,597.93,745.4Z"/><rect class="cls-5" x="617.21" y="765.34" width="6.76" height="24.68" rx="3"/><rect class="cls-5" x="617.21" y="802.51" width="6.76" height="24.68" rx="3"/><path class="cls-2" d="M640.52,780H624v-4.64h16.55a8.14,8.14,0,0,0,8.13-8.13V750.82A12.8,12.8,0,0,1,661.43,738h12v4.65h-12a8.14,8.14,0,0,0-8.13,8.13v16.41A12.79,12.79,0,0,1,640.52,780Z"/><path class="cls-2" d="M640.81,817.17H624v-4.64h16.84a8.14,8.14,0,0,0,8.13-8.13v-5.09a12.79,12.79,0,0,1,12.78-12.77h11.72v4.64H661.72a8.14,8.14,0,0,0-8.13,8.13v5.09A12.79,12.79,0,0,1,640.81,817.17Z"/><path class="cls-6" d="M670.2,827.19h3.23a0,0,0,0,1,0,0v39.2a0,0,0,0,1,0,0H670.2a14,14,0,0,1-14-14v-11.2A14,14,0,0,1,670.2,827.19Z"/><rect class="cls-5" x="597.93" y="887.89" width="75.51" height="6.97" rx="2"/><path class="cls-13" d="M673.44,734.17V877a2.33,2.33,0,0,1-2.33,2.33H600.25a2.32,2.32,0,0,1-2.32-2.33V734.17a2.33,2.33,0,0,1,.74-1.7,2.29,2.29,0,0,1,1.58-.63h70.86A2.33,2.33,0,0,1,673.44,734.17Z"/><g class="cls-14"><path class="cls-5" d="M604.51,877.05V734.17a2.33,2.33,0,0,1,2.33-2.33h-6.59a2.32,2.32,0,0,0-2.32,2.33V877.05a2.32,2.32,0,0,0,2.32,2.32h6.59A2.32,2.32,0,0,1,604.51,877.05Z"/></g><rect class="cls-6" x="480.22" y="322.18" width="239.29" height="189.92" rx="8"/><path class="cls-6" d="M612.64,512.11v42.62a27.88,27.88,0,0,1-27.88,27.88H530.17V573.9h22.75A14,14,0,0,0,567,560V512.11Z"/><path class="cls-1" d="M605.34,512.11v42.62a27.88,27.88,0,0,1-27.88,27.88h-54.6V573.9h22.75a14,14,0,0,0,14-13.95V512.11Z"/><path class="cls-2" d="M651.14,573.86H519.84a4.2,4.2,0,0,0-4.19,4.2h0a4.2,4.2,0,0,0,4.19,4.2h131.3a4.2,4.2,0,0,0,4.19-4.2h0A4.2,4.2,0,0,0,651.14,573.86Z"/><rect class="cls-1" x="471.51" y="322.18" width="239.29" height="189.92" rx="8"/><rect class="cls-4" x="479.56" y="328.57" width="223.19" height="177.15" rx="8"/><circle class="cls-8" cx="517.1" cy="362.24" r="19.86" transform="translate(45.74 782.28) rotate(-76.72)"/><path class="cls-4" d="M524.81,363.28A4.1,4.1,0,0,0,522.9,362a.2.2,0,0,1,0-.36,4.29,4.29,0,0,0,1.6-1.32,3.65,3.65,0,0,0,.7-2.2,4.12,4.12,0,0,0-1.72-3.59,7.28,7.28,0,0,0-3.62-1.14.19.19,0,0,1-.18-.19v-2.56a.2.2,0,0,0-.2-.2h-1.67a.19.19,0,0,0-.19.2v2.5a.2.2,0,0,1-.19.2h-1.28a.2.2,0,0,1-.2-.2v-2.5a.2.2,0,0,0-.2-.2H514a.2.2,0,0,0-.19.2v2.5a.19.19,0,0,1-.19.2l-5,0a.2.2,0,0,0-.19.2v1.94a.19.19,0,0,0,.2.19h3a.19.19,0,0,1,.2.19l.07,12.73a.2.2,0,0,1-.19.2h-3a.2.2,0,0,0-.2.2V371a.2.2,0,0,0,.2.2l5,0a.2.2,0,0,1,.19.2l0,2.54a.2.2,0,0,0,.19.2h1.67a.2.2,0,0,0,.2-.2l0-2.55a.2.2,0,0,1,.2-.19h1.27a.2.2,0,0,1,.2.19v2.55a.21.21,0,0,0,.2.2h1.67a.19.19,0,0,0,.19-.2v-2.58a.19.19,0,0,1,.18-.19,7.28,7.28,0,0,0,4-1.34,4.58,4.58,0,0,0,1.71-3.86A4,4,0,0,0,524.81,363.28Zm-3-5a2.2,2.2,0,0,1-.87,1.86,3.94,3.94,0,0,1-2.43.66l-3.07,0a.2.2,0,0,1-.2-.19l0-4.61a.19.19,0,0,1,.19-.2h3a4.33,4.33,0,0,1,2.53.57A2.21,2.21,0,0,1,521.85,358.28Zm-.37,9.62a3.77,3.77,0,0,1-2.45.73l-3.51,0a.18.18,0,0,1-.19-.19l0-5.17a.19.19,0,0,1,.19-.2l3.79,0c2,0,3.06,1,3.07,2.82A2.46,2.46,0,0,1,521.48,367.9Z"/><path class="cls-2" d="M597.54,352.67H554a2.32,2.32,0,0,1-2.32-2.32h0A2.32,2.32,0,0,1,554,348h43.56a2.32,2.32,0,0,1,2.33,2.32h0A2.32,2.32,0,0,1,597.54,352.67Z"/><path class="cls-2" d="M685.24,352.67H609.45a2.32,2.32,0,0,1-2.32-2.32h0a2.32,2.32,0,0,1,2.32-2.32h75.79a2.32,2.32,0,0,1,2.33,2.32h0A2.32,2.32,0,0,1,685.24,352.67Z"/><path class="cls-2" d="M581.57,364.56H554a2.32,2.32,0,0,1-2.32-2.32h0a2.32,2.32,0,0,1,2.32-2.32h27.59a2.32,2.32,0,0,1,2.32,2.32h0A2.32,2.32,0,0,1,581.57,364.56Z"/><path class="cls-2" d="M685.24,364.56H657.66a2.32,2.32,0,0,1-2.33-2.32h0a2.32,2.32,0,0,1,2.33-2.32h27.58a2.32,2.32,0,0,1,2.33,2.32h0A2.32,2.32,0,0,1,685.24,364.56Z"/><path class="cls-2" d="M581.57,376.45H554a2.32,2.32,0,0,1-2.32-2.32h0A2.32,2.32,0,0,1,554,371.8h27.59a2.32,2.32,0,0,1,2.32,2.33h0A2.32,2.32,0,0,1,581.57,376.45Z"/><path class="cls-2" d="M633.77,376.45H606.18a2.32,2.32,0,0,1-2.32-2.32h0a2.32,2.32,0,0,1,2.32-2.33h27.59a2.32,2.32,0,0,1,2.32,2.33h0A2.32,2.32,0,0,1,633.77,376.45Z"/><path class="cls-2" d="M646.62,364.56H593.33a2.32,2.32,0,0,1-2.32-2.32h0a2.32,2.32,0,0,1,2.32-2.32h53.29a2.32,2.32,0,0,1,2.32,2.32h0A2.32,2.32,0,0,1,646.62,364.56Z"/><path class="cls-12" d="M516.48,440.47H497.23a1.74,1.74,0,0,1,0-3.48h19.25L530,401a3.48,3.48,0,0,1,6.58.17l10.84,34.23,7.75-8a3.49,3.49,0,0,1,5.35.41l5.78,8.17,4.75-5a3.47,3.47,0,0,1,2.6-1.09,3.53,3.53,0,0,1,2.55,1.18l3.88,4.42,14.8-35.29a3.49,3.49,0,0,1,6.46.08l13.35,34.14,10.85-22a3.48,3.48,0,0,1,6.37.27l8,20.42,10.46-39.48a3.49,3.49,0,0,1,6.64-.32l14.79,40.09,11.61-35.51a1.74,1.74,0,1,1,3.31,1.08l-11.6,35.51a3.49,3.49,0,0,1-6.59.12l-14.79-40.08L643.27,434a3.48,3.48,0,0,1-6.61.38l-8-20.42-10.86,22a3.48,3.48,0,0,1-6.37-.27l-13.35-34.14-14.8,35.29a3.48,3.48,0,0,1-5.83,1l-3.88-4.41-4.75,5a3.47,3.47,0,0,1-5.37-.39l-5.79-8.17-7.74,8a3.49,3.49,0,0,1-5.83-1.37l-10.84-34.23-13.5,36A3.51,3.51,0,0,1,516.48,440.47Z"/><rect class="cls-12" x="513.08" y="461.77" width="15.29" height="27.3" rx="4"/><rect class="cls-12" x="582.39" y="461.77" width="15.29" height="27.3" rx="4"/><rect class="cls-12" x="631.18" y="457.51" width="15.29" height="31.56" rx="4"/><rect class="cls-12" x="653.64" y="457.51" width="15.29" height="31.56" rx="4"/><rect class="cls-8" x="606.4" y="467" width="15.29" height="22.07" rx="4"/><rect class="cls-8" x="536.7" y="475.42" width="15.29" height="13.65" rx="4"/><rect class="cls-8" x="559.74" y="477.84" width="15.29" height="11.23" rx="4"/><rect class="cls-6" x="559.65" y="512.11" width="45.69" height="9.62"/><polygon class="cls-2" points="148.17 598.07 127.26 902.32 115.07 902.32 127.26 598.07 148.17 598.07"/><path class="cls-3" d="M695.44,582.26v15.8H101.61a2.32,2.32,0,0,1-2.32-2.32V584.58a2.32,2.32,0,0,1,2.32-2.32Z"/><path class="cls-1" d="M695.44,582.26h36.17a3,3,0,0,1,3,3v9.81a3,3,0,0,1-3,3H695.44a0,0,0,0,1,0,0V582.26A0,0,0,0,1,695.44,582.26Z"/><path class="cls-4" d="M695.44,582.26v6.32H101.61c-1.28,0-2.32-.42-2.32-.93v-4.47c0-.51,1-.92,2.32-.92Z"/><path class="cls-3" d="M695.44,582.26h36.17a3,3,0,0,1,3,3v.32a3,3,0,0,1-3,3H695.44a0,0,0,0,1,0,0v-6.32A0,0,0,0,1,695.44,582.26Z"/><polygon class="cls-2" points="682.92 598.07 703.83 902.32 716.03 902.32 703.83 598.07 682.92 598.07"/><path class="cls-3" d="M373.64,185.88H254.21a4.65,4.65,0,0,0-4.65,4.65v63.12a4.65,4.65,0,0,0,4.65,4.64h73l15.76,16.08a2.32,2.32,0,0,0,4-1.63V258.29h26.72a4.65,4.65,0,0,0,4.65-4.64V190.53A4.65,4.65,0,0,0,373.64,185.88Z"/><path class="cls-8" d="M273.89,232.07l0,.05c.08.19.16.37.25.55s.19.35.29.52c4.06,6.87,16.13,7.85,27.39,2.1,11.55-5.9,17.86-16.63,14.11-24s-16.15-8.51-27.69-2.61c-11.22,5.73-17.5,16-14.38,23.36Z"/><path class="cls-15" d="M277.05,229l0,0c.07.14.14.28.22.41l.24.38c3.48,5.09,13.35,5.51,22.39.87,9.26-4.75,14.14-13,10.91-18.45s-13.37-6-22.63-1.25c-9,4.62-13.88,12.57-11.15,18Z"/><path class="cls-15" d="M274.46,233.19l2.15,4.26c1.6,3.13,4.78,5.14,8.79,6,.35.08.72.14,1.1.2a26.71,26.71,0,0,0,10-.63l.91-.23a35.79,35.79,0,0,0,6.88-2.68c.85-.44,1.69-.9,2.48-1.39.26-.16.51-.31.76-.48a32.12,32.12,0,0,0,7.24-6.32l.58-.72a20.68,20.68,0,0,0,3.51-6.53q.17-.57.3-1.14a10.86,10.86,0,0,0-.77-7.38L316,211.32a11.36,11.36,0,0,1,.37,8.82c-.1.31-.21.62-.33.94a22.27,22.27,0,0,1-3.74,6.11l-.59.68a32.88,32.88,0,0,1-6.57,5.55c-.25.16-.5.32-.76.47-.8.49-1.63,1-2.49,1.4a36.26,36.26,0,0,1-6.93,2.69l-.87.22a27.24,27.24,0,0,1-9.49.69l-1-.14C279.51,238.06,276.22,236.18,274.46,233.19Z"/><path class="cls-16" d="M300.27,222.78a3.31,3.31,0,0,0,1.61-2.5,3.39,3.39,0,0,0-1.05-2.34c-.05-.05,0-.12,0-.17l1.62-1.17c.07,0,.09-.13,0-.18l-.77-.72a.18.18,0,0,0-.22,0l-1.6,1.16a.18.18,0,0,1-.21,0l-.6-.56c-.05,0,0-.12,0-.17l1.6-1.16c.06,0,.08-.13,0-.17l-.78-.72a.17.17,0,0,0-.21,0l-1.6,1.16a.18.18,0,0,1-.22,0l-2.31-2.14a.17.17,0,0,0-.21,0l-1.22.89a.11.11,0,0,0,0,.17l1.39,1.3c.05,0,0,.12,0,.17l-8,5.79a.2.2,0,0,1-.22,0l-1.39-1.3a.18.18,0,0,0-.22,0l-1.22.89c-.07.05-.08.13,0,.17l2.31,2.15s0,.12,0,.17l-1.57,1.14a.12.12,0,0,0,0,.18l.78.72a.18.18,0,0,0,.21,0l1.57-1.14a.18.18,0,0,1,.22,0l.59.55a.12.12,0,0,1,0,.18l-1.57,1.14a.11.11,0,0,0,0,.17l.78.72a.18.18,0,0,0,.22,0l1.61-1.17a.18.18,0,0,1,.2,0,5,5,0,0,0,2.41,1,4.32,4.32,0,0,0,3.06-.9,2.9,2.9,0,0,0,1-1.31,2.17,2.17,0,0,0,.07-1.29c0-.1.13-.2.24-.16a3.47,3.47,0,0,0,1.72.23A4.29,4.29,0,0,0,300.27,222.78Zm-8.13,2.35a2.84,2.84,0,0,1-1.54-.83L289.18,223c-.05,0,0-.12,0-.17l2.9-2.1a.17.17,0,0,1,.21,0l1.43,1.33a1.86,1.86,0,0,1,.72,1.35,1.52,1.52,0,0,1-.75,1.22A2.3,2.3,0,0,1,292.14,225.13Zm6.58-3.78a2.33,2.33,0,0,1-3.21,0l-1.76-1.64c-.05,0,0-.12,0-.17l3.25-2.35a.18.18,0,0,1,.21,0l1.64,1.52a1.8,1.8,0,0,1,.69,1.39A1.76,1.76,0,0,1,298.72,221.35Z"/><path class="cls-17" d="M316,221.08a25.67,25.67,0,0,1,2.87,3.54q.17-.57.3-1.14a26.53,26.53,0,0,0-2.84-3.34C316.23,220.45,316.12,220.76,316,221.08Z"/><path class="cls-17" d="M311.67,227.87c1.1,1.28,2.14,2.62,3.11,4l.58-.72q-1.47-2.06-3.1-4Z"/><path class="cls-17" d="M304.34,233.89q1.31,2.36,2.44,4.78c.26-.16.51-.31.76-.48-.76-1.62-1.58-3.21-2.44-4.77C304.85,233.58,304.6,233.74,304.34,233.89Z"/><path class="cls-17" d="M294.05,238.2a17.53,17.53,0,0,0,.93,2.34,21.11,21.11,0,0,0,1.53,2.43l.91-.23c-.49-.72-1-1.43-1.43-2.2a14,14,0,0,1-1.07-2.56Z"/><path class="cls-17" d="M283.59,238.75a27.32,27.32,0,0,0,1.81,4.65c.35.08.72.14,1.1.2a26.83,26.83,0,0,1-1.94-4.71Z"/><rect class="cls-15" x="335.96" y="197.91" width="9.76" height="46.34" rx="1.86" transform="translate(-65.01 239.35) rotate(-35.55)"/><rect class="cls-17" x="326.52" y="207.35" width="9.76" height="1.03" transform="translate(-59.09 231.4) rotate(-35.55)"/><rect class="cls-17" x="332.4" y="215.58" width="9.76" height="1.03" transform="translate(-62.77 236.37) rotate(-35.55)"/><rect class="cls-17" x="338.29" y="223.81" width="9.76" height="1.03" transform="translate(-66.46 241.32) rotate(-35.55)"/><rect class="cls-17" x="344.17" y="232.04" width="9.76" height="1.03" transform="matrix(0.81, -0.58, 0.58, 0.81, -70.15, 246.26)"/><rect class="cls-3" x="515.4" y="155.51" width="319.69" height="57.51" rx="9"/><rect class="cls-4" x="758.53" y="184.26" width="19.79" height="10.83" rx="5"/><path class="cls-2" d="M859.74,209.45v5.44A12.7,12.7,0,0,1,847,227.58H544.9a29.24,29.24,0,0,1-16.76-5.6,39.73,39.73,0,0,1-4.31-3.46,45.29,45.29,0,0,1-7.65-9.07Z"/><path class="cls-1" d="M829.11,218.52V222h-301a39.73,39.73,0,0,1-4.31-3.46Z"/><path class="cls-2" d="M842.18,155.51h10.06a7.49,7.49,0,0,1,7.49,7.49v57.1a7.49,7.49,0,0,1-7.49,7.49H842.18a36,36,0,0,1-36-36v0a36,36,0,0,1,36-36Z"/><path class="cls-3" d="M549.72,218.52s-1.74,29.51,0,28.35a32.19,32.19,0,0,0,4.46-4.26s3.48,7,4.45,4.29,1-28.38,1-28.38Z"/><path class="cls-3" d="M995.64,912.28H91.41a5,5,0,0,1-5-5h0a5,5,0,0,1,5-5H995.64a5,5,0,0,1,5,5h0A5,5,0,0,1,995.64,912.28Z"/><path class="cls-3" d="M587.4,933.19H179.67a4.65,4.65,0,0,1-4.64-4.65h0a4.64,4.64,0,0,1,4.64-4.64H587.4a4.65,4.65,0,0,1,4.65,4.64h0A4.65,4.65,0,0,1,587.4,933.19Z"/><path class="cls-3" d="M857.74,933.19H630.84a4.65,4.65,0,0,1-4.64-4.65h0a4.64,4.64,0,0,1,4.64-4.64h226.9a4.65,4.65,0,0,1,4.65,4.64h0A4.65,4.65,0,0,1,857.74,933.19Z"/><path class="cls-1" d="M695.44,603.7v-5.64H101.61c-1.28,0-2.32.38-2.32.83v4c0,.45,1,.82,2.32.82Z"/><path class="cls-6" d="M731.79,598.06H695.44v5.64h36.35a2.82,2.82,0,0,0,2.82-2.82h0A2.82,2.82,0,0,0,731.79,598.06Z"/><path class="cls-18" d="M410.82,358.09a27.07,27.07,0,0,1,.7,13.68c-1.57,7.54-5.26,11.05-2.63,15.43s-5.26,26.65-8.24,29.81-15.08-2.35-15.6-1.7-1.23,7.18-1.23,7.18l-42.43-2s5.26-21.53,4.2-30.23S367.5,307.06,410.82,358.09Z"/><path class="cls-18" d="M526.3,560.84c6.39-1.5,12.58-4.59,18.39-4s15.49,7.35,18,12.78,1.36,8.9-1.16,7.74-7.55-4.65-9.1-4.26-7.93,4.84-12.19,5.61-13.94-4.06-13.94-4.06Z"/><path class="cls-18" d="M377.42,835.62S362,862.28,363.75,869.89s11.42,9.17,14.52,16,8,9.59,11.91,10.6,6.34,2.24,4,4.93-21.1-1.22-24.05-5S355.76,885,353,884.23s-23.72-7.55-20-18.2,12.54-8,16.92-17.14,12-27.21,12-27.21Z"/><path class="cls-19" d="M422.86,680s-9.63,12.78-11.18,19-10.84,17.81-25.94,50.73-30.59,71.63-27.49,76.28,14.87,17,21.95,11.22,67.49-108,77.95-128.16,30.2-32.91,15.87-48S422.86,680,422.86,680Z"/><path class="cls-18" d="M503.3,852.11s-1.59,24.16,3.83,29.78,14.52,1.93,20.72,6.19,11.81,4.07,15.68,2.91,6.58-1.36,6,2.13-18.68,9.87-23.18,8.13-18.25-2.33-21-1.55-24.2,5.81-26.53-5.23,6.59-13.36,5.62-23.43.12-25.46.12-25.46Z"/><path class="cls-5" d="M435.92,598.06s76.24-1.16,82.63,4.65,22.65,14.52,19.75,43.56-23.23,127.78-26.14,160.3-2.9,44.15-7.55,45.31-26.13.58-27.88-7.55,0-98.74,0-128.36,11.62-29.82,0-39.5-86.54,5-90.6-9.68-4.07-26.91,5.23-44.33S435.92,598.06,435.92,598.06Z"/><path class="cls-12" d="M402.39,631.94c-10.06,13.17-11.23,34.85-11.23,34.85H378S304,606,294,567.67c-5.7-21.7-6.18-54.82-4-82,1.69-20.83,4.94-38.18,8.64-44.22,8.52-13.94,33.3-13.94,33.3-13.94s44.19-2.81,60.6-2.95,26.71,6.24,26.71,6.24-2.08,12.89-1.92,33a276.11,276.11,0,0,0,6,55.24c10.45,48.79,11.84,76.09,12.62,79S412.46,618.78,402.39,631.94Z"/><path class="cls-20" d="M331.61,429s4.34-12.89,7-13.42,46-.39,47.34,2,3.16,8.41,2,8.68S331.61,431.48,331.61,429Z"/><path class="cls-4" d="M441.87,582.26c-9.42-.28-16.08-.7-17.41-1.23-4-1.61-6.9-7.15-11.18-20.93,9.1-1.86,18.76-1.61,25.41,4.57C444.1,569.69,444.17,576,441.87,582.26Z"/><path class="cls-21" d="M442.21,582.77h-.36c-7.1-.21-15.92-.6-17.58-1.27-4.12-1.66-7.12-7.22-11.47-21.24l-.16-.53.54-.11c11.31-2.31,20-.73,25.85,4.69,5,4.6,6.06,10.7,3.31,18.13Zm-28.29-22.29c4.16,13.3,7,18.57,10.73,20.09.55.22,3.29.77,16.87,1.17,2.44-6.86,1.38-12.48-3.17-16.71C432.85,559.93,424.64,558.4,413.92,560.48Z"/><g class="cls-22"><path class="cls-23" d="M402.39,631.94c-10.06,13.17-11.23,34.85-11.23,34.85H378S304,606,294,567.67c-5.7-21.7-6.18-54.82-4-82,4.15-.26,51.27-3,60.43,7,9.58,10.45,30.2,153.91,31.65,159.43s3.78.87,9-13.07,25.55-30.2,31.07-40.07-16.84-18-22.94-62.15a308.15,308.15,0,0,1,0-81.89s7.34,3.4,18.11,8.93a276.11,276.11,0,0,0,6,55.24c10.45,48.79,11.84,76.09,12.62,79S412.46,618.78,402.39,631.94Z"/></g><path class="cls-12" d="M531,579.19c-1.77,3.31-59.29,3.94-89.17,3.07-9.42-.28-16.08-.7-17.41-1.23-4-1.61-6.9-7.15-11.18-20.93-1.64-5.3-3.48-11.83-5.66-19.83-7.84-28.75-8.42-81.6-8.42-81.6.87-26.72,20-27.88,20-27.88a45.75,45.75,0,0,1,19.17,13.36c8.71,10.16,9.87,99.32,12.78,103.67s74.34,3.78,77.83,6.68S533.36,574.83,531,579.19Z"/><path class="cls-24" d="M412.58,352.31c-.35,8.24-6.31,8.59-9.47,11s-7.32,5.53-7.32,5.53S394,380.71,392,382.69s-2.76-2.5-5.65-8.29-9.6-3.94-11.71,1.45.4,9.73,1.58,12.23-2.5,13.67-2.76,15.78-10.13,1.45-17.75.39-10.79-2.36-12.37-3.28c-.54-.33-.58,0-.42.61-7.68-3.7-15.64-8.28-18.69-20.34-4.73-18.76,1.23-43.66,14.73-54.54,13.23-10.64,28-3.62,28.56-3.34a11.52,11.52,0,0,1-3.31-2.79c-1.58-1.93,4-3.33,9.82-3a12.67,12.67,0,0,1,8.23,4,9.19,9.19,0,0,1-.69-1.76c-.7-2.46,7.54-.18,18.59,7.54S412.92,344.06,412.58,352.31Z"/><path class="cls-3" d="M469.48,683.63H369V669.12h100.5a7.25,7.25,0,0,1,7.25,7.25h0A7.25,7.25,0,0,1,469.48,683.63Z"/><path class="cls-3" d="M246.81,480.94h61.9a47.81,47.81,0,0,1,47.08,40.93L380.2,683.63H227.26L200,538.14C194.46,508.43,217,480.94,246.81,480.94Z"/><path class="cls-2" d="M238,480.94h61.9A47.81,47.81,0,0,1,347,521.87l24.41,161.76H218.47L191.23,538.14C185.67,508.43,208.17,480.94,238,480.94Z"/><path class="cls-1" d="M236.06,683.63,203.47,898.15a2.93,2.93,0,0,0,2.87,3.39h5.46a2.92,2.92,0,0,0,2.85-2.4l39.63-215.51Z"/><path class="cls-1" d="M336.67,683.63,304.08,898.15a2.93,2.93,0,0,0,2.87,3.39h5.46a2.9,2.9,0,0,0,2.85-2.4L354.9,683.63Z"/><path class="cls-2" d="M459.3,683.63l32.59,214.52a2.93,2.93,0,0,1-2.87,3.39h-5.45a2.92,2.92,0,0,1-2.86-2.4L441.08,683.63Z"/></g></svg>