<svg viewBox="0 0 500 500" xmlns:xlink="http://www.w3.org/1999/xlink" xmlns="http://www.w3.org/2000/svg"><defs><style>.cls-1{fill:none;}.cls-2{fill:url(#未命名的渐变_115);}.cls-3{fill:url(#未命名的渐变_115-2);}.cls-4{fill:url(#未命名的渐变_116);}.cls-5{fill-opacity:0.09;}.cls-6{fill:url(#未命名的渐变_117);}.cls-11,.cls-7{fill:#372732;}.cls-7{fill-opacity:0.3;}.cls-8{fill:url(#未命名的渐变_118);}.cls-9{fill:url(#未命名的渐变_122);}.cls-10{fill:url(#未命名的渐变_131);}.cls-11{fill-opacity:0.14;}.cls-12{fill:#f3f3f3;}.cls-13{fill:url(#未命名的渐变_129);}.cls-14{fill:url(#未命名的渐变_122-2);}.cls-15{fill:url(#未命名的渐变_131-2);}.cls-16{fill:url(#未命名的渐变_131-3);}.cls-17{fill:url(#未命名的渐变_125);}.cls-18{fill:url(#未命名的渐变_133);}.cls-19{fill:url(#未命名的渐变_133-2);}.cls-20{fill:#f8cda5;}.cls-21{fill:url(#未命名的渐变_135);}.cls-22{fill:url(#未命名的渐变_129-2);}.cls-23{fill:url(#未命名的渐变_135-2);}.cls-24{fill:url(#未命名的渐变_131-4);}.cls-25{fill:url(#未命名的渐变_133-3);}.cls-26{fill:#273869;}.cls-27{fill:url(#未命名的渐变_133-4);}.cls-28{fill:url(#未命名的渐变_134);}.cls-29{fill:url(#未命名的渐变_135-3);}</style><linearGradient gradientUnits="userSpaceOnUse" gradientTransform="translate(1203880.63 25603.07) scale(350.09 38.47)" y2="-657.84" x2="-3437.09" y1="-657.86" x1="-3438.03" id="未命名的渐变_115"><stop stop-color="#ffed88" offset="0"></stop><stop stop-color="#ffb474" offset="1"></stop></linearGradient><linearGradient xlink:href="#未命名的渐变_115" gradientTransform="matrix(1, 0, 0, -1, 2517.86, 2598)" y2="2207.95" x2="-2214.65" y1="2304.47" x1="-2521.12" id="未命名的渐变_115-2"></linearGradient><linearGradient gradientUnits="userSpaceOnUse" gradientTransform="translate(1594378.01 80698.06) scale(463.84 127.35)" y2="-630.26" x2="-3436.75" y1="-630.6" x1="-3437.4" id="未命名的渐变_116"><stop stop-color="#c3e8ff" offset="0"></stop><stop stop-color="#5cb3fc" offset="1"></stop></linearGradient><linearGradient gradientUnits="userSpaceOnUse" gradientTransform="matrix(25.02, 3.39, 3.39, 45.88, 96884.88, 22280.87)" y2="-198.99" x2="-3836.04" y1="-198.15" x1="-3835.7" id="未命名的渐变_117"><stop stop-color="#fb8460" offset="0"></stop><stop stop-color="#ffc4a7" offset="1"></stop></linearGradient><linearGradient gradientUnits="userSpaceOnUse" gradientTransform="matrix(26.14, 1.72, 1.72, 36.75, 100821.4, 14429.8)" y2="-208.54" x2="-3834.51" y1="-208.95" x1="-3834.75" id="未命名的渐变_118"><stop stop-color="#cb7f00" offset="0"></stop><stop stop-color="#9c4800" offset="1"></stop></linearGradient><linearGradient gradientUnits="userSpaceOnUse" gradientTransform="matrix(14.01, 0.44, 0.44, 26.64, 52164.45, 11021.77)" y2="-337.91" x2="-3703.95" y1="-338.91" x1="-3704" id="未命名的渐变_122"><stop stop-color="#6b3c5d" offset="0"></stop><stop stop-color="#261637" offset="1"></stop></linearGradient><linearGradient gradientUnits="userSpaceOnUse" gradientTransform="matrix(117.4, -1.6, -1.6, 71.6, 423088.44, 16379.99)" y2="-304.86" x2="-3606.4" y1="-304.58" x1="-3606.07" id="未命名的渐变_131"><stop stop-color="#fb8460" offset="0"></stop><stop stop-color="#fed0ba" offset="1"></stop></linearGradient><linearGradient gradientUnits="userSpaceOnUse" gradientTransform="matrix(53.96, 0.56, 0.56, 69.97, 195838.69, 23637.91)" y2="-304.47" x2="-3621.46" y1="-305.25" x1="-3622.06" id="未命名的渐变_129"><stop stop-color="#fffbe6" offset="0"></stop><stop stop-color="#c0d5e7" offset="1"></stop></linearGradient><linearGradient xlink:href="#未命名的渐变_122" gradientTransform="matrix(12.81, 2.17, 2.17, 26.17, 50544.29, 14570.26)" y2="-217.99" x2="-3892" y1="-218.99" x1="-3892.05" id="未命名的渐变_122-2"></linearGradient><linearGradient xlink:href="#未命名的渐变_131" gradientTransform="matrix(79.11, 3.29, 3.29, 99.37, 301139.25, 31206.84)" y2="-184.91" x2="-3796.03" y1="-184.15" x1="-3795.82" id="未命名的渐变_131-2"></linearGradient><linearGradient xlink:href="#未命名的渐变_131" gradientTransform="matrix(119.56, -6.11, -6.11, 81.98, 452364.5, -7450.9)" y2="-189.73" x2="-3790.8" y1="-189.39" x1="-3790.47" id="未命名的渐变_131-3"></linearGradient><linearGradient gradientUnits="userSpaceOnUse" gradientTransform="matrix(22.73, -0.75, -0.75, 18.11, 87637.89, 1816.89)" y2="-256.45" x2="-3849.03" y1="-256.89" x1="-3849.31" id="未命名的渐变_125"><stop stop-color="#fef6e7" offset="0"></stop><stop stop-color="#c5ced2" offset="1"></stop></linearGradient><linearGradient gradientUnits="userSpaceOnUse" gradientTransform="matrix(3.77, 0.47, 0.47, 6.68, 16244.89, 4493.95)" y2="-368.89" x2="-4170.73" y1="-368.89" x1="-4171.77" id="未命名的渐变_133"><stop stop-color="#9cbaf4" offset="0"></stop><stop stop-color="#456de3" offset="1"></stop></linearGradient><linearGradient xlink:href="#未命名的渐变_133" gradientTransform="matrix(6.05, 0.12, 0.12, 6.81, 24781.54, 3197.13)" y2="-387.93" x2="-4033.24" y1="-387.93" x1="-4034.28" id="未命名的渐变_133-2"></linearGradient><linearGradient gradientUnits="userSpaceOnUse" gradientTransform="matrix(35.97, -1.48, -1.48, 26.83, 137420.56, 649.66)" y2="-229.59" x2="-3823.07" y1="-228.34" x1="-3823.07" id="未命名的渐变_135"><stop stop-color="#a634c9" offset="0"></stop><stop stop-color="#f35f83" offset="1"></stop></linearGradient><linearGradient xlink:href="#未命名的渐变_129" gradientTransform="matrix(38.14, 5.42, 5.42, 71.52, 146799.5, 34442.47)" y2="-188.03" x2="-3815.38" y1="-188.98" x1="-3815.73" id="未命名的渐变_129-2"></linearGradient><linearGradient xlink:href="#未命名的渐变_135" gradientTransform="matrix(71.16, 2.28, 2.28, 85.2, 270953.28, 24844.99)" y2="-187.77" x2="-3798.28" y1="-186.52" x1="-3798.28" id="未命名的渐变_135-2"></linearGradient><linearGradient xlink:href="#未命名的渐变_131" gradientTransform="matrix(77.73, 0.34, 0.34, 79.84, 295374.23, 16579.52)" y2="-189.17" x2="-3796.91" y1="-188.41" x1="-3796.59" id="未命名的渐变_131-4"></linearGradient><linearGradient xlink:href="#未命名的渐变_133" gradientTransform="matrix(32.58, 3.07, 3.07, 51.46, 126965.76, 22126.65)" y2="-196.65" x2="-3874.22" y1="-196.78" x1="-3874.36" id="未命名的渐变_133-3"></linearGradient><linearGradient xlink:href="#未命名的渐变_133" gradientTransform="matrix(35.67, 23.23, -26.55, 51.74, 133813.19, 99312.69)" y2="-177.02" x2="-3877.06" y1="-177.02" x1="-3878.1" id="未命名的渐变_133-4"></linearGradient><linearGradient gradientUnits="userSpaceOnUse" gradientTransform="matrix(24.75, -7.78, 7.02, 23.66, 97703.23, -24189.69)" y2="-247.24" x2="-3870.6" y1="-248.27" x1="-3869.69" id="未命名的渐变_134"><stop stop-color="#b7e0fe" offset="0"></stop><stop stop-color="#d0f1ff" offset="1"></stop></linearGradient><linearGradient xlink:href="#未命名的渐变_135" gradientTransform="matrix(36.77, -1.61, -1.61, 26.86, 140371.37, 202.44)" y2="-229.69" x2="-3822.26" y1="-228.45" x1="-3822.26" id="未命名的渐变_135-3"></linearGradient></defs><g id="图层_2"><g id="Layer_1"><g id="Badminton"><rect height="500" width="500" class="cls-1" id="Rectangle"></rect><g id="Group-2"><path d="M131.66,316.3l23-14.4,307.7-24a17.88,17.88,0,0,1,19.3,16.5c0,.5.1.9.1,1.4v2.5a18.05,18.05,0,0,1-18,18Z" class="cls-2" id="Path-782"></path><path d="M31.56,304.6l75.7-.8h0L134,316.1,31.46,328a11,11,0,0,1-12.2-9.7c0-.4-.1-.9-.1-1.3A12.53,12.53,0,0,1,31.56,304.6Z" class="cls-3" id="Path-781"></path><path d="M146,381.1l335.7,42.6.1,33.5h0v.1a26.91,26.91,0,0,1-26.9,26.9H54.06a36,36,0,0,1-36-35.8h0l-.2-26.8Zm57.9-18.3,250.8,26.3.5.1a30,30,0,0,1,26.4,28l-321.9-40.4ZM89.36,368l-15.7,4,58.3,7.4L17.86,415v-1a35.86,35.86,0,0,1,27-35l.5-.1Zm39-9.5a60.78,60.78,0,0,1,20.8-1.4h0l40.4,4.2L145.66,375l-56.2-7Z" class="cls-4" id="Combined-Shape"></path><ellipse ry="13.5" rx="60.5" cy="454.5" cx="178.46" class="cls-5" id="Oval"></ellipse><g id="IMG_0036"><path d="M219.59,184.48s3.18-7.39,1.31-12.16-6.72-8.55-9.72-13.44-1.45-15.57,5.29-17.75,10.77-.39,14.74,4.85,5.14,17.11,3.2,18.94a6.89,6.89,0,0,1-5.86,1.33,25.83,25.83,0,0,0,7.13,11.83C242.9,184.63,221.29,188.86,219.59,184.48Z" class="cls-6" id="Path"></path><path d="M234.64,177.23l-4.36,8.29c-1,.25-1.86.39-2.85.55l-6.63-5.43a18.24,18.24,0,0,1,.43-1.79l12.53-2.69A13.29,13.29,0,0,0,234.64,177.23Z" class="cls-7" id="Combined-Shape-2"></path><path d="M219.44,169.51a30.8,30.8,0,0,1,.14-4.27,23.11,23.11,0,0,1,1.2-3.94s-3.77-1.42-4.27-3.27,1.2-3.93,3.08-2.31,2.81,2.39,1.81-.08-3.85-5.77-2.39-8,5.22-4.77,7.6-4.44,3-2.3,3-4.12-4-9.39-6.76-7.54-2.11,4.59-5.52,5.43-4.54.12-6.33,2.83-2,6.3-3.44,8.34a9.13,9.13,0,0,0-1.68,6C206.63,158.28,219.44,169.51,219.44,169.51Z" class="cls-8" id="Path-2"></path><g id="Group-3"><g id="Group-39"><path d="M128.26,355.89a6.37,6.37,0,0,1,1.64,6.65c-.74,1.83-3.62,8.23-4,11.65s1.51,8.75-3.13,7.81-6.46-7.38-6.07-10.6,1.35-10.15,2.35-12.89S126.62,354.55,128.26,355.89Z" class="cls-9" id="Path-3"></path><path d="M240.63,287.13s-24.73,45.19-31.22,48.62c-2,1.07-10.67,4-21.55,7.55C163.33,351.37,127,362.64,127,362.64s-2.4-2.72-.66-4.58,39.72-26,52.87-30.36,22-2.77,22-2.77l12.16-35.65Z" class="cls-10" id="Path-4"></path><path d="M207.59,306.49l19,5.24c-1.7,2.76-3.4,5.63-5.11,8.29-.1-.1-.31-.19-.41-.29-4-2.66-8.45-7.11-13.47-13.24Z" class="cls-11" id="Combined-Shape-3"></path><path d="M134,357.19a17.31,17.31,0,0,0,.5,2.79c-4.64,1.66-7.61,2.76-7.61,2.76s-2.39-2.71-.66-4.58a92.24,92.24,0,0,1,7.81-5.57A26.41,26.41,0,0,0,134,357.19Z" class="cls-12" id="Combined-Shape-4"></path><path d="M226.78,245.69s-7.14,7.65-11,22.39-8.57,38.23-8.57,38.23a52,52,0,0,0,9,6.59c6.23,3.78,15.2,2.67,15.2,2.67s9.22-22.64,27.65-67.81C237.61,246.31,226.78,245.69,226.78,245.69Z" class="cls-13" id="Path-5"></path></g></g><path d="M203.22,397.56c1.14-1.09,5.56,1.24,5.95,3.71s3.13,15.3,3.65,17.25.33,5.31-4.07,4.39-4.69-2.8-5.39-4.62.19-3.27-1.7-5-4.16-7.75-3.49-9.88S200.77,400,203.22,397.56Z" class="cls-14" id="Path-6"></path><path d="M242.88,303.4s1.51,28.11.34,32.24-7.94,4.8-13.65,14.82-25.13,49-25.13,49-.08,5.28,3.45,2,38.55-48.12,42.89-50.74,6.91-6.86,8.56-13.7S267,291.79,267,291.79Z" class="cls-15" id="Path-7"></path><path d="M263.12,304.65l.95,4.7c-.54,3.63-1.26,7.39-1.8,11a16.49,16.49,0,0,1-3.66-.13c-3.4-.37-8.48-2.4-15.23-6h.1l0-.1Z" class="cls-11" id="Combined-Shape-5"></path><path d="M210.81,393.72a10.72,10.72,0,0,0,2,1.91,69.69,69.69,0,0,1-5,5.75c-3.43,3.28-3.45-2-3.45-2s1.76-3.61,4.46-8.9A13.14,13.14,0,0,0,210.81,393.72Z" class="cls-12" id="Combined-Shape-6"></path><path d="M243,172s30.57-11.53,34.8-16.75c1.45-1.75,7.75-11.86,13.41-17.62,11.09-11.17,24.36-20.76,26-23.56,2.56-4.26,10.46-13.2,12.27-15.21s5.2-1,8.06-2.79,6.29-4.44,6.69-3.8-1.16,3.53-3.56,5-6.25,2.71-7.54,4.13-2.74,4.48-2.29,4.72a13.09,13.09,0,0,0,4.56.69c1.71-.07,4.4-1,5-.29s-.66,2.24-3,3.1-8.13,1.09-9.67,1.64-4.89,3.61-7,6.68-20.61,33.54-23.65,38-13.1,8.05-15,8.85-33.26,24-33.26,24C241,193.44,228.86,179.77,243,172Z" class="cls-16" id="Path-8"></path><path d="M336.22,43.8a.87.87,0,0,1,1.34.19h0l1.68,2.27-6,6.31L340,47.25l5.43,7.44a.1.1,0,0,0,.12.08v.1a1,1,0,0,1-.6,1.31h0l-17.61,7a2.83,2.83,0,0,1-3.4-1,2.77,2.77,0,0,1,.06-3.46h0l12-14.86A.41.41,0,0,0,336.22,43.8Z" class="cls-17" id="Combined-Shape-7"></path><path d="M326.48,55.87l4.3,6-.48.18-4.16-5.82Z" class="cls-18" id="Combined-Shape-8"></path><path d="M325.8,56.69l3.94,5.65-2.38,1a2.89,2.89,0,0,1-3.26-.79l-.13-.19a2.73,2.73,0,0,1,.06-3.45h0Z" class="cls-19" id="Combined-Shape-9"></path><path d="M264.62,163.27a10.05,10.05,0,0,1,4.67,3.92,28.82,28.82,0,0,1,2.53,5.06c-2,1.34-4,2.67-5.95,4l-.41,0Z" class="cls-7" id="Combined-Shape-10"></path><path d="M332.91,98.39c2.21-.76,3.2,1,5.37,3.2s3.27,4,1.86,4.06-2.43-2-3.94-3.13-2.84-2.58-4.64-1.79S330.71,99.14,332.91,98.39Z" class="cls-20" id="Path-9"></path><path d="M243.06,170.33s17.72-7.67,19.63-7.77,4.73,3,5.61,6-.37,8.56-.37,8.56L252,190.28S243.32,195,237.72,189s-4-8.88-2.54-12.16A11.61,11.61,0,0,1,243.06,170.33Z" class="cls-21" id="Path-10"></path><path d="M267.92,177l-10.56,8.76-2.22-5L268.35,174A21.13,21.13,0,0,1,267.92,177Z" class="cls-7" id="Combined-Shape-11"></path><path d="M234,253.58l8,60.89s19.29,2.92,25-1.84c1.52-1.25,2.82-11.58,2.81-23.83,0-21.06-1.88-48.3-1.88-48.3Z" class="cls-22" id="Path-11"></path><path d="M247.63,280.37l5.13,34.93a93.69,93.69,0,0,1-10.66-.85h0l-2.84-21.72Z" class="cls-11" id="Combined-Shape-12"></path><path d="M221.16,254.49c14,4.77,24.84,6.6,32.44,5.39s12.73-2.72,15.48-4.57l-1-14.82-46.37,12.2Z" class="cls-11" id="Path-135"></path><path d="M199.45,187.77s18.82-9.67,22-8.65c3.94,1.19,11.52,1.11,12.31-3.47.36-2.19,11.86-6.34,11.86-6.34s8.25,1.63,12.47,14.23S276,235.78,276,235.78a39.24,39.24,0,0,1-28.16,19.75c-20.41,3.44-28.21-2.32-28.21-2.32s2.91-16.76-.3-24.25c-1.64-4-17.39-24.78-20.26-30.1C196,193.57,199.45,187.77,199.45,187.77Z" class="cls-23" id="Path-12"></path><path d="M217.31,202.05l1,25.14c-2.46-4.06-8.57-12.61-13.4-19.44Z" class="cls-7" id="Combined-Shape-13"></path><path d="M245.62,169.22h0c.1,0,.21.06.53.11,1.79,10,4.84,35.08-5.23,55.2-4.77,9.57-14.7,22.28-20.28,29.23a8.19,8.19,0,0,1-1.11-.63,90.22,90.22,0,0,0,1.18-14.87,130.65,130.65,0,0,0,12-17c8.91-14.68,8.2-39,7.38-49.87C242.93,170.15,245.62,169.22,245.62,169.22Z" class="cls-12" id="Combined-Shape-14"></path><path d="M130.81,160.27c.91,2.58,3,2.26,5.59,5.29S149,192.42,152.91,202s9,21.25,17.86,18.13,38.7-14.53,38.7-14.53c9.86-5.51,5.34-23.83-6.81-18.06l-32.41,19.11a60.49,60.49,0,0,0-6.72-14.33c-4.45-7-19.05-21.79-20.28-25.74s.24-8.75.29-11.59,3.52-8.46,1.85-9.41-4.87,5-5.34,5.91-2.68-1.6-2.68-1.6,1.54-3.68,1-5-2.8,2.77-4.06,4.39-1.38,1.53-1.33,1.83S129.89,157.68,130.81,160.27Z" class="cls-24" id="Path-13"></path><path d="M182.6,199.65l6.52.89,7.42,6.52L192,212.33c-.76.33-1.54.55-2.4.89a21,21,0,0,0-1.88-7.4,25.11,25.11,0,0,0-5.13-6.17Z" class="cls-7" id="Combined-Shape-15"></path><g id="Group-25"><path d="M142.93,144.85l21.51-53.42a1.18,1.18,0,0,0-.67-1.62,1.24,1.24,0,0,0-1.61.66l-21.51,53.42a1.24,1.24,0,1,0,2.28,1Z" class="cls-25" id="Path-14"></path><path d="M132.48,162a2.14,2.14,0,0,0,1.17,2.24,2.11,2.11,0,0,0,2.4-.79l8.5-22.4-2.62-1.21Z" class="cls-26" id="Path-15"></path><path d="M163.68,91.75c11,4.13,24.33-4.87,30-20s1.62-30.63-9.36-34.76S160,41.91,154.32,57,152.69,87.62,163.68,91.75Zm.85-2.26c-9.47-3.56-13.12-17.67-7.93-31.55S174,35.85,183.43,39.42,196.56,57.08,191.37,71,174,93.05,164.53,89.49Z" class="cls-27" id="Oval-2"></path><polygon points="161.91 62.06 180.45 46.77 183.99 70.41 167.93 80.24 161.91 62.06" class="cls-28" id="Rectangle-2"></polygon></g><path d="M181.85,199.36a11.86,11.86,0,0,1,7,6,19.53,19.53,0,0,1,2.13,9l19.4-6S222,203,217.66,190.86c-1.49-4.32-8-6-8-6s-3.94-1.2-12.56,4.42S181.85,199.36,181.85,199.36Z" class="cls-29" id="Path-16"></path></g></g></g></g></g></svg>